<?xml version="1.0" standalone="no"?>
<!DOCTYPE svg PUBLIC "-//W3C//DTD SVG 20010904//EN"
 "http://www.w3.org/TR/2001/REC-SVG-20010904/DTD/svg10.dtd">
<svg version="1.0" xmlns="http://www.w3.org/2000/svg"
 width="640.000000pt" height="640.000000pt" viewBox="0 0 640.000000 640.000000"
 preserveAspectRatio="xMidYMid meet">

<g transform="translate(0.000000,640.000000) scale(0.100000,-0.100000)"
fill="#000000" stroke="none">
<path d="M3110 5710 c-129 -18 -229 -64 -350 -160 -126 -101 -192 -116 -401
-90 -104 12 -125 12 -195 -2 -105 -21 -181 -51 -255 -100 -120 -80 -195 -173
-249 -306 -44 -110 -59 -139 -102 -187 -37 -42 -53 -51 -259 -149 -115 -54
-204 -135 -269 -244 -85 -145 -113 -293 -87 -470 25 -160 4 -244 -89 -357
-118 -146 -165 -268 -166 -435 -1 -173 46 -307 158 -445 101 -125 122 -204 97
-370 -34 -224 23 -414 170 -572 76 -81 154 -133 262 -174 149 -57 209 -117
275 -278 47 -113 87 -176 155 -242 163 -158 373 -223 600 -186 154 25 237 3
360 -97 138 -112 273 -160 445 -159 166 1 292 50 437 168 109 90 198 113 348
88 177 -29 348 4 486 96 129 84 214 189 270 335 53 139 106 198 219 248 211
93 306 165 392 297 90 138 122 297 95 476 -25 167 -4 246 97 370 112 138 159
272 158 445 -1 166 -49 292 -167 437 -93 113 -114 198 -89 355 29 182 -3 340
-95 479 -100 150 -184 216 -358 281 -121 44 -196 119 -243 242 -58 151 -117
236 -215 314 -158 125 -331 169 -540 139 -167 -24 -245 -4 -370 97 -128 103
-242 149 -391 159 -43 3 -104 2 -134 -3z m205 -214 c69 -18 107 -39 205 -114
146 -112 263 -150 415 -136 50 5 140 8 200 8 97 0 116 -2 166 -25 132 -62 210
-146 263 -284 75 -198 179 -302 382 -381 127 -49 216 -128 272 -243 41 -84 40
-73 30 -406 -2 -98 0 -130 16 -175 29 -86 64 -149 123 -225 91 -116 123 -197
123 -315 0 -118 -30 -195 -125 -319 -115 -152 -152 -264 -139 -421 4 -52 8
-142 8 -200 1 -98 -1 -109 -31 -173 -47 -98 -134 -185 -226 -226 -184 -83
-217 -102 -286 -170 -54 -53 -77 -86 -110 -157 -92 -193 -106 -218 -153 -265
-29 -29 -79 -63 -126 -86 -74 -36 -81 -37 -182 -37 -58 0 -148 4 -200 8 -74 6
-110 5 -162 -8 -86 -20 -183 -67 -245 -119 -148 -124 -269 -158 -435 -123 -82
18 -105 30 -206 106 -158 119 -278 158 -437 144 -49 -5 -137 -8 -195 -8 -101
0 -108 1 -183 37 -98 48 -171 120 -211 208 -95 210 -108 233 -178 301 -47 46
-92 78 -141 102 -40 18 -103 48 -142 67 -93 43 -180 130 -225 224 -32 66 -34
76 -34 175 0 58 4 148 8 200 13 157 -30 288 -139 424 -66 81 -90 125 -110 203
-19 73 -19 153 0 226 20 77 44 122 106 198 107 134 155 272 145 417 -3 45 -9
121 -12 168 -5 66 -3 100 11 150 34 126 133 242 253 296 186 83 216 101 281
167 68 68 113 141 152 246 46 126 129 214 258 274 60 27 90 29 391 20 93 -3
125 0 170 15 84 29 139 59 221 121 85 65 135 93 199 111 60 16 174 17 235 0z"/>
<path d="M2935 4106 c-27 -7 -70 -23 -95 -35 -63 -33 -156 -130 -185 -193 -43
-94 -47 -160 -42 -725 4 -581 3 -574 68 -675 116 -180 354 -247 546 -152 76
37 158 122 197 203 l31 66 0 605 0 605 -32 68 c-36 76 -118 164 -183 197 -92
47 -206 60 -305 36z m223 -229 c23 -14 54 -48 69 -74 l28 -48 0 -555 0 -555
-25 -45 c-73 -130 -259 -150 -355 -37 -19 22 -40 57 -45 76 -6 22 -10 247 -10
566 l0 530 24 50 c43 92 103 127 207 122 52 -2 75 -8 107 -30z"/>
<path d="M2034 4096 c-54 -24 -64 -49 -64 -158 l0 -98 -45 0 c-87 0 -140 -86
-96 -157 20 -32 67 -53 119 -53 l22 0 0 -564 0 -563 -52 -5 c-99 -10 -141
-101 -79 -170 l29 -33 185 -3 c216 -4 248 4 273 63 30 72 -13 133 -101 143
l-45 5 -2 766 c-3 721 -4 768 -21 793 -10 14 -32 31 -49 37 -38 13 -36 13 -74
-3z"/>
<path d="M3862 4072 c-36 -34 -47 -90 -39 -200 5 -63 10 -79 33 -103 21 -22
37 -29 67 -29 85 0 107 37 107 186 l0 106 -34 34 c-44 44 -91 46 -134 6z"/>
<path d="M4519 4085 c-14 -7 -31 -26 -38 -42 -55 -120 -653 -1632 -653 -1653
-3 -112 147 -140 195 -37 9 18 157 387 331 822 193 482 316 803 316 823 0 44
-14 68 -50 87 -36 18 -67 19 -101 0z"/>
<path d="M4514 2632 c-36 -29 -44 -57 -44 -162 0 -56 5 -111 11 -123 29 -57
103 -75 152 -37 32 26 47 75 47 160 0 85 -15 134 -47 160 -32 25 -90 26 -119
2z"/>
</g>
</svg>
