<?xml version="1.0" standalone="no"?>
<!DOCTYPE svg PUBLIC "-//W3C//DTD SVG 20010904//EN"
 "http://www.w3.org/TR/2001/REC-SVG-20010904/DTD/svg10.dtd">
<svg version="1.0" xmlns="http://www.w3.org/2000/svg"
 width="640.000000pt" height="640.000000pt" viewBox="0 0 640.000000 640.000000"
 preserveAspectRatio="xMidYMid meet">

<g transform="translate(0.000000,640.000000) scale(0.100000,-0.100000)"
fill="#000000" stroke="none">
<path d="M3110 5710 c-129 -18 -229 -64 -350 -160 -126 -101 -192 -116 -401
-90 -104 12 -125 12 -195 -2 -105 -21 -181 -51 -255 -100 -120 -80 -195 -173
-249 -306 -44 -110 -59 -139 -102 -187 -37 -42 -53 -51 -259 -149 -115 -54
-204 -135 -269 -244 -85 -145 -113 -293 -87 -470 25 -160 4 -244 -89 -357
-118 -146 -165 -268 -166 -435 -1 -173 46 -307 158 -445 101 -125 122 -204 97
-370 -34 -224 23 -414 170 -572 76 -81 154 -133 262 -174 149 -57 209 -117
275 -278 47 -113 87 -176 155 -242 163 -158 373 -223 600 -186 154 25 237 3
360 -97 138 -112 273 -160 445 -159 166 1 292 50 437 168 109 90 198 113 348
88 177 -29 348 4 486 96 129 84 214 189 270 335 53 139 106 198 219 248 211
93 306 165 392 297 90 138 122 297 95 476 -25 167 -4 246 97 370 112 138 159
272 158 445 -1 166 -49 292 -167 437 -93 113 -114 198 -89 355 29 182 -3 340
-95 479 -100 150 -184 216 -358 281 -121 44 -196 119 -243 242 -58 151 -117
236 -215 314 -158 125 -331 169 -540 139 -167 -24 -245 -4 -370 97 -128 103
-242 149 -391 159 -43 3 -104 2 -134 -3z m251 -229 c31 -12 99 -54 150 -93
159 -120 267 -156 429 -142 52 5 142 8 200 8 91 0 112 -4 162 -27 110 -49 182
-118 229 -217 17 -36 49 -102 70 -146 68 -142 168 -231 331 -294 99 -38 140
-64 199 -126 57 -60 92 -121 114 -198 18 -60 18 -62 -1 -316 -10 -147 37 -284
146 -420 95 -118 126 -210 117 -339 -7 -103 -36 -175 -114 -279 -125 -167
-161 -272 -147 -432 4 -52 8 -142 8 -200 0 -99 -2 -109 -34 -175 -48 -100
-131 -184 -223 -224 -185 -83 -220 -104 -287 -170 -53 -52 -76 -85 -109 -156
-85 -180 -96 -198 -144 -251 -35 -39 -73 -66 -133 -96 -80 -39 -88 -41 -176
-41 -51 -1 -141 3 -200 8 -177 13 -291 -25 -453 -154 -58 -47 -93 -66 -160
-87 -82 -27 -88 -28 -175 -17 -109 14 -175 43 -271 117 -83 66 -170 110 -259
132 -53 13 -86 15 -175 8 -60 -4 -151 -7 -202 -7 -83 0 -97 3 -166 35 -127 61
-194 136 -252 284 -78 198 -166 282 -405 385 -120 52 -194 124 -253 249 -28
58 -31 75 -31 155 0 50 4 140 9 200 6 90 4 122 -9 175 -25 96 -60 165 -127
252 -72 93 -106 165 -120 249 -21 131 17 258 113 379 71 89 98 140 128 239 21
67 22 84 15 190 -5 64 -9 157 -9 206 0 83 3 95 36 165 65 134 131 193 283 254
164 66 266 158 334 299 21 45 53 111 70 147 47 99 119 168 229 217 50 23 71
27 162 27 58 0 148 -3 200 -8 157 -14 269 23 421 139 87 67 130 90 202 110 72
21 205 14 278 -14z"/>
<path d="M3090 4106 c-112 -32 -230 -129 -275 -229 -42 -91 -47 -174 -42 -733
4 -576 3 -564 73 -669 69 -105 163 -166 283 -186 170 -28 330 42 426 186 69
105 68 94 72 663 5 564 0 647 -43 739 -32 68 -121 161 -184 193 -95 49 -214
62 -310 36z m232 -232 c24 -16 54 -50 68 -74 l25 -45 0 -555 0 -555 -25 -45
c-14 -24 -45 -58 -68 -75 -40 -27 -51 -30 -122 -30 -71 0 -82 3 -122 30 -23
17 -54 51 -68 75 l-25 45 0 555 0 555 22 42 c23 42 68 84 113 102 14 6 55 10
92 8 56 -2 74 -8 110 -33z"/>
<path d="M1635 4100 c-57 -23 -83 -92 -55 -145 27 -50 56 -55 344 -55 l267 0
-17 -32 c-9 -18 -113 -130 -230 -249 -211 -213 -214 -216 -214 -258 0 -34 6
-49 29 -72 28 -28 33 -29 124 -29 181 0 255 -30 302 -123 24 -50 25 -55 25
-271 0 -193 -3 -226 -19 -261 -59 -132 -240 -166 -344 -67 -39 36 -56 72 -68
139 -14 73 -33 100 -79 114 -60 18 -112 -14 -133 -81 -9 -29 13 -144 38 -197
28 -63 110 -152 172 -188 211 -124 485 -42 593 179 41 83 50 149 50 371 0 264
-15 326 -104 438 -39 49 -137 114 -192 128 -24 6 -44 14 -44 17 0 3 56 63 124
132 131 133 165 182 190 270 26 96 30 154 11 190 -30 57 -48 60 -417 59 -183
0 -342 -4 -353 -9z"/>
<path d="M4045 4097 c-48 -22 -60 -57 -60 -172 0 -114 11 -147 58 -172 41 -21
90 -9 121 28 25 29 26 37 26 145 0 110 -1 115 -27 144 -33 35 -76 45 -118 27z"/>
<path d="M4691 4097 c-13 -6 -32 -23 -42 -37 -30 -42 -661 -1632 -661 -1666 0
-58 48 -104 107 -104 61 0 68 13 391 820 378 944 359 891 338 936 -26 55 -83
77 -133 51z"/>
<path d="M4694 2650 c-12 -4 -31 -21 -43 -36 -19 -24 -21 -39 -21 -140 0 -106
2 -114 25 -142 33 -39 74 -48 118 -27 51 24 62 53 62 170 0 113 -11 147 -57
171 -30 16 -53 17 -84 4z"/>
</g>
</svg>
