<?xml version="1.0" standalone="no"?>
<!DOCTYPE svg PUBLIC "-//W3C//DTD SVG 20010904//EN"
 "http://www.w3.org/TR/2001/REC-SVG-20010904/DTD/svg10.dtd">
<svg version="1.0" xmlns="http://www.w3.org/2000/svg"
 width="640.000000pt" height="640.000000pt" viewBox="0 0 640.000000 640.000000"
 preserveAspectRatio="xMidYMid meet">

<g transform="translate(0.000000,640.000000) scale(0.100000,-0.100000)"
fill="#000000" stroke="none">
<path d="M3110 5710 c-129 -18 -229 -64 -350 -160 -126 -101 -192 -116 -401
-90 -104 12 -125 12 -195 -2 -105 -21 -181 -51 -255 -100 -120 -80 -195 -173
-249 -306 -44 -110 -59 -139 -102 -187 -37 -42 -53 -51 -259 -149 -115 -54
-204 -135 -269 -244 -85 -145 -113 -293 -87 -470 25 -160 4 -244 -89 -357
-118 -146 -165 -268 -166 -435 -1 -173 46 -307 158 -445 101 -125 122 -204 97
-370 -34 -224 23 -414 170 -572 76 -81 154 -133 262 -174 149 -57 209 -117
275 -278 47 -113 87 -176 155 -242 163 -158 373 -223 600 -186 154 25 237 3
360 -97 138 -112 273 -160 445 -159 166 1 292 50 437 168 109 90 198 113 348
88 177 -29 348 4 486 96 129 84 214 189 270 335 53 139 106 198 219 248 211
93 306 165 392 297 90 138 122 297 95 476 -25 167 -4 246 97 370 112 138 159
272 158 445 -1 166 -49 292 -167 437 -93 113 -114 198 -89 355 29 182 -3 340
-95 479 -100 150 -184 216 -358 281 -121 44 -196 119 -243 242 -58 151 -117
236 -215 314 -158 125 -331 169 -540 139 -167 -24 -245 -4 -370 97 -128 103
-242 149 -391 159 -43 3 -104 2 -134 -3z m251 -229 c31 -12 99 -54 150 -93 52
-39 117 -81 144 -94 83 -39 186 -57 279 -50 231 18 252 19 312 1 75 -21 136
-56 197 -114 56 -52 84 -97 123 -196 70 -179 187 -299 350 -361 109 -41 157
-69 210 -125 102 -109 140 -210 130 -348 -18 -239 -18 -256 -3 -321 24 -98 57
-166 136 -269 97 -128 115 -178 115 -311 -1 -126 -21 -187 -92 -281 -135 -176
-167 -257 -167 -414 1 -55 5 -142 9 -193 7 -76 6 -103 -9 -157 -34 -127 -133
-243 -253 -296 -267 -118 -353 -199 -432 -408 l-33 -84 -126 7 c-525 28 -1030
196 -1476 491 -201 133 -419 313 -529 439 l-58 67 47 50 c100 106 119 190 113
494 -4 197 -7 226 -27 277 -29 75 -81 140 -153 194 -83 60 -136 74 -310 81
l-148 6 0 213 0 214 275 0 c303 0 320 3 350 60 20 39 19 66 -5 100 -35 49 -49
51 -422 48 l-347 -3 -30 -29 -31 -30 0 -175 c0 -96 -2 -172 -5 -170 -9 10 -45
216 -60 349 -9 77 -17 225 -17 345 l-1 209 33 26 c117 89 183 175 234 305 39
99 67 144 123 196 104 98 206 135 345 125 48 -3 127 -9 176 -12 145 -10 259
30 408 144 92 69 124 87 196 107 73 21 206 14 279 -14z m-1184 -2249 c46 -24
84 -69 102 -121 7 -21 11 -113 11 -245 0 -230 -7 -263 -62 -314 l-25 -23 -30
38 c-120 152 -273 416 -359 616 l-34 79 177 -4 c160 -3 182 -6 220 -26z"/>
<path d="M3085 4107 c-74 -25 -129 -59 -187 -118 -67 -67 -102 -135 -117 -229
-14 -84 -14 -1021 -1 -1115 14 -93 52 -168 120 -236 69 -69 137 -105 230 -121
162 -28 315 36 416 173 79 108 78 98 82 692 4 565 0 632 -43 725 -34 75 -128
165 -212 204 -58 28 -81 33 -158 35 -55 2 -105 -2 -130 -10z m233 -230 c23
-14 54 -48 69 -74 l28 -48 0 -555 0 -555 -25 -45 c-14 -24 -45 -58 -68 -75
-40 -27 -51 -30 -122 -30 -71 0 -82 3 -122 30 -23 17 -54 51 -68 75 l-25 45
-3 510 c-2 281 0 534 3 562 8 70 55 139 115 171 63 33 159 29 218 -11z"/>
<path d="M4045 4096 c-16 -7 -36 -24 -44 -37 -19 -32 -26 -182 -12 -237 23
-84 116 -106 174 -42 26 29 27 34 27 145 0 111 -1 116 -27 145 -33 36 -76 45
-118 26z"/>
<path d="M4672 4085 c-25 -21 -83 -158 -361 -853 -182 -455 -331 -831 -331
-836 0 -4 7 -23 16 -42 18 -38 58 -64 98 -64 64 0 64 -1 415 878 182 455 331
831 331 836 0 24 -36 79 -61 91 -41 22 -73 18 -107 -10z"/>
<path d="M4694 2650 c-12 -4 -31 -21 -43 -36 -19 -24 -21 -39 -21 -140 0 -106
2 -114 25 -142 33 -39 74 -48 118 -27 51 24 62 53 62 170 0 113 -11 147 -57
171 -30 16 -53 17 -84 4z"/>
</g>
</svg>
