<?xml version="1.0" standalone="no"?>
<!DOCTYPE svg PUBLIC "-//W3C//DTD SVG 20010904//EN"
 "http://www.w3.org/TR/2001/REC-SVG-20010904/DTD/svg10.dtd">
<svg version="1.0" xmlns="http://www.w3.org/2000/svg"
 width="2560.000000pt" height="1707.000000pt" viewBox="0 0 2560.000000 1707.000000"
 preserveAspectRatio="xMidYMid meet">

<g transform="translate(0.000000,1707.000000) scale(0.100000,-0.100000)"
fill="#000000" stroke="none">
<path d="M9835 15226 c-91 -40 -155 -208 -155 -409 0 -70 16 -153 31 -163 4
-2 17 12 28 33 l20 38 1 -40 c0 -53 16 -108 39 -136 l18 -23 33 98 c53 161 96
188 196 125 71 -45 411 -387 420 -423 9 -37 -20 -61 -91 -76 -27 -6 -89 -30
-136 -55 -113 -57 -179 -70 -332 -62 -131 7 -237 24 -500 81 -337 73 -619 102
-742 76 -90 -19 -183 -90 -139 -107 8 -3 40 -3 71 1 l55 6 -41 -46 c-69 -79
-56 -88 68 -51 70 20 95 22 331 22 277 -1 402 -12 695 -66 247 -45 258 -51
185 -101 -22 -15 -40 -34 -40 -41 0 -22 57 -105 86 -124 57 -37 317 -27 463
18 37 11 124 24 210 30 259 20 865 -5 1148 -47 351 -52 736 -223 1017 -453 67
-55 261 -248 358 -356 46 -51 168 -248 168 -270 0 -16 89 -205 105 -225 14
-16 93 -354 119 -505 9 -49 16 -114 16 -142 0 -50 -1 -53 -26 -53 -14 0 -87
15 -162 34 -450 113 -643 138 -1152 152 -343 9 -491 -7 -735 -81 -260 -79
-504 -203 -672 -343 -121 -101 -163 -151 -221 -267 -81 -160 -114 -296 -115
-480 -2 -152 13 -245 59 -374 41 -115 98 -213 179 -306 l62 -71 -108 -68
c-396 -246 -640 -531 -723 -843 -72 -272 -55 -568 49 -819 39 -94 46 -108 132
-245 29 -47 53 -88 53 -91 0 -3 -38 -35 -84 -71 -406 -318 -697 -651 -856
-982 -99 -206 -123 -319 -123 -580 0 -200 16 -307 68 -452 20 -54 42 -123 50
-155 13 -56 13 -57 -14 -82 -15 -14 -30 -26 -33 -26 -4 0 -37 27 -75 60 -37
33 -71 60 -75 60 -5 0 -8 -13 -8 -29 0 -36 -16 -81 -29 -81 -14 0 -29 82 -46
257 -20 204 -29 253 -45 253 -13 0 -26 -55 -55 -235 -58 -361 -77 -445 -100
-445 -14 0 -63 76 -110 170 -51 103 -149 264 -153 252 -2 -7 -14 -74 -25 -149
l-22 -137 -108 147 c-60 81 -112 147 -117 147 -4 0 -11 -37 -15 -82 -3 -46 -9
-98 -13 -116 l-7 -32 -123 101 c-68 56 -125 99 -127 97 -3 -3 10 -60 29 -129
42 -152 47 -181 37 -198 -12 -18 -36 -4 -143 85 -89 74 -175 131 -184 121 -3
-3 -1 -29 5 -58 6 -33 6 -58 0 -63 -10 -11 -7 -13 -164 130 -132 120 -165 145
-176 138 -14 -9 -11 -70 13 -211 12 -73 19 -135 16 -138 -4 -4 -80 13 -170 39
-199 55 -328 86 -328 77 0 -4 23 -29 51 -56 28 -28 60 -63 72 -79 l21 -29 -55
6 c-30 4 -130 27 -224 52 -93 25 -190 49 -214 52 -49 7 -49 8 -19 -65 17 -43
6 -52 -96 -77 -42 -11 -76 -22 -76 -25 0 -3 39 -21 88 -39 124 -48 204 -90
199 -104 -2 -8 -42 -15 -108 -20 -181 -13 -398 -81 -366 -114 10 -9 87 -23
329 -58 234 -35 451 -76 493 -95 15 -6 4 -9 -41 -9 -90 -1 -176 -20 -202 -44
-22 -20 -22 -20 -100 -2 -42 9 -93 20 -113 22 -33 4 -37 3 -42 -25 -8 -39 -19
-40 -200 -28 -93 6 -151 6 -157 0 -6 -6 -5 -23 2 -47 14 -47 3 -58 -51 -50
-61 9 -454 73 -485 79 -28 6 -24 0 46 -77 49 -53 73 -86 65 -90 -7 -3 -54 -17
-106 -29 l-93 -23 58 -24 c127 -52 318 -87 668 -123 110 -11 202 -22 204 -25
3 -3 1 -5 -5 -5 -6 0 -48 -18 -94 -41 l-84 -40 130 5 c87 3 209 18 370 46 265
45 423 61 411 41 -4 -6 -42 -29 -84 -50 -42 -22 -86 -46 -97 -55 -20 -15 -20
-15 5 -16 14 0 79 12 145 26 289 61 451 94 468 94 23 0 22 -15 -4 -52 -12 -16
-19 -31 -17 -33 2 -2 39 7 81 20 131 42 478 135 503 135 12 0 25 -4 28 -8 7
-12 -66 -79 -145 -134 -36 -26 -72 -54 -80 -64 -13 -16 -11 -17 27 -11 117 19
518 164 734 267 138 65 337 129 360 115 5 -3 12 -28 16 -55 4 -28 7 -50 8 -50
1 0 100 18 221 40 233 43 335 50 335 26 0 -41 -137 -113 -380 -198 l-165 -58
75 6 c102 8 369 52 705 118 332 64 433 81 442 73 3 -4 -32 -30 -78 -59 l-83
-53 65 -6 c35 -4 110 -7 165 -8 105 -1 164 -8 164 -20 0 -4 -64 -38 -142 -76
-79 -39 -142 -74 -140 -80 5 -19 148 -2 502 60 34 6 34 5 -44 -70 -58 -54 -77
-78 -69 -86 13 -13 159 4 393 46 177 32 322 38 345 14 24 -24 4 -57 -63 -104
-72 -51 -60 -53 114 -25 71 11 170 23 219 27 79 5 93 3 113 -13 l23 -19 -36
-59 c-19 -32 -34 -60 -32 -62 1 -2 61 15 132 37 72 21 130 39 131 39 1 0 4
-23 7 -51 4 -29 9 -54 12 -57 8 -8 51 14 170 88 187 116 215 123 215 53 0 -64
7 -66 90 -28 83 38 111 42 130 20 25 -31 0 -69 -125 -192 -69 -67 -125 -127
-125 -134 0 -19 112 -4 222 31 132 41 223 83 286 132 34 27 69 44 100 49 26 5
92 31 147 59 55 28 109 50 121 50 54 0 67 -42 51 -165 l-7 -60 46 50 c25 28
73 88 107 134 l62 85 3 -62 c2 -34 6 -62 11 -62 4 0 23 16 42 36 82 85 148 84
149 -3 1 -28 1 -28 43 20 23 26 47 47 53 47 5 0 36 -16 69 -35 32 -20 59 -34
61 -32 2 2 0 17 -5 34 -5 18 -7 34 -3 37 13 14 51 4 95 -24 54 -34 71 -36 116
-14 29 15 39 15 121 -2 84 -17 90 -17 108 -1 25 23 81 22 233 -4 68 -11 129
-22 134 -22 6 -1 9 15 7 37 l-3 39 83 -6 c46 -4 126 -16 178 -26 52 -11 96
-18 98 -16 3 2 -8 18 -22 36 -15 17 -25 34 -22 36 2 3 42 -4 88 -15 123 -30
459 -94 465 -89 2 3 -32 33 -76 66 -128 98 -113 109 103 82 92 -12 158 -16
171 -11 13 5 32 22 45 39 12 17 29 31 38 31 9 0 62 -18 118 -40 107 -42 138
-48 150 -29 13 22 85 0 193 -60 60 -34 116 -61 125 -61 13 0 14 8 9 45 -5 40
-4 45 14 45 10 0 32 -13 48 -30 32 -34 48 -36 97 -16 23 10 53 13 94 9 47 -4
62 -2 73 11 21 25 46 19 97 -25 26 -22 58 -48 72 -57 23 -15 25 -15 37 1 18
24 43 21 147 -18 128 -48 132 -47 124 15 -7 50 -7 50 22 50 16 0 50 -7 75 -16
53 -18 104 -15 157 9 35 15 37 15 80 -14 49 -33 64 -33 68 2 6 40 17 44 81 24
l59 -18 49 24 c47 24 53 24 330 24 l282 0 28 -26 c60 -57 203 -109 297 -109
41 0 48 3 56 26 24 63 334 146 600 160 63 3 138 13 165 21 48 15 229 116 240
134 3 4 -16 2 -42 -7 -130 -41 -181 -45 -578 -51 -214 -3 -388 -3 -385 0 3 3
77 19 165 36 199 39 348 80 476 131 127 50 355 163 394 194 l30 24 -80 -13
c-44 -7 -217 -41 -385 -74 -168 -34 -334 -64 -370 -67 l-65 -5 36 33 c21 18
127 88 238 156 220 136 257 161 229 162 -10 0 -108 -23 -219 -51 -273 -70
-279 -62 -63 91 120 85 233 184 222 195 -3 4 -125 -27 -270 -68 -144 -41 -280
-77 -300 -81 -48 -9 -50 6 -7 80 17 30 29 59 27 64 -2 6 -47 -17 -101 -51 -54
-34 -129 -71 -170 -84 -39 -12 -89 -30 -110 -39 -59 -26 -43 -11 36 32 171 95
295 201 479 411 261 298 297 370 319 638 13 168 7 193 -57 223 -59 29 -106 22
-221 -34 -79 -39 -95 -51 -143 -112 -74 -95 -370 -389 -455 -453 -226 -167
-488 -225 -916 -202 -218 12 -272 26 -404 104 -245 145 -602 416 -859 653 -65
60 -141 129 -168 154 l-51 45 41 110 c22 61 45 144 52 185 17 97 17 507 1 660
-50 463 -185 828 -451 1225 -82 122 -128 203 -140 246 -7 22 -5 59 7 123 21
115 24 546 5 678 -44 300 -219 645 -480 949 -77 89 -329 337 -481 475 -10 9
-18 66 -27 206 -7 106 -21 249 -30 318 -151 1152 -850 2166 -1819 2635 -341
165 -726 261 -1139 284 -165 9 -171 12 -321 125 -55 42 -130 92 -167 111 -44
23 -83 54 -113 89 -49 58 -84 76 -149 76 -107 0 -375 77 -621 176 -323 132
-374 146 -430 120z m89 -98 c8 -13 18 -35 21 -50 9 -34 49 -72 69 -65 11 4 16
19 16 43 l0 37 48 -5 c26 -3 94 -23 152 -46 58 -22 154 -59 213 -82 60 -22
148 -50 197 -60 149 -32 366 -156 573 -329 134 -111 154 -120 290 -130 126
-10 145 -16 218 -66 28 -19 56 -35 61 -35 6 0 26 9 45 21 25 16 43 19 67 15
43 -8 142 -79 281 -200 61 -52 137 -110 170 -128 58 -31 66 -33 205 -38 147
-6 187 -16 219 -54 18 -22 44 -20 66 4 10 11 27 20 37 20 25 0 139 -52 161
-74 17 -17 17 -20 -8 -63 -14 -25 -25 -57 -25 -70 0 -33 52 -141 95 -197 39
-52 42 -59 55 -180 7 -69 14 -94 31 -112 36 -38 19 -57 -46 -52 -61 5 -70 -5
-32 -38 39 -35 73 -52 156 -79 90 -30 98 -37 111 -122 11 -64 23 -83 56 -83
20 0 23 5 26 47 4 64 24 66 84 11 61 -56 106 -123 120 -178 16 -62 39 -64 65
-6 11 25 28 50 39 56 26 14 68 -3 79 -32 5 -13 15 -38 21 -56 10 -27 20 -34
57 -44 35 -8 55 -23 96 -69 30 -35 65 -63 84 -70 24 -8 38 -21 49 -47 8 -21
28 -54 44 -74 17 -20 30 -41 30 -46 0 -28 -88 -29 -123 -2 -30 24 -37 25 -37
5 0 -22 -29 -33 -71 -25 -55 10 -72 -6 -109 -102 -17 -46 -44 -104 -61 -129
-33 -51 -36 -71 -14 -89 8 -7 15 -21 15 -32 0 -29 -63 -88 -94 -88 -35 0 -33
-10 10 -62 20 -23 43 -59 51 -78 32 -74 40 -85 83 -107 25 -12 70 -27 100 -33
74 -14 96 -32 147 -126 49 -87 70 -114 89 -114 33 0 27 186 -22 620 -13 118
-26 235 -29 260 l-5 45 15 -45 c47 -140 133 -612 142 -781 5 -99 4 -108 -16
-128 -11 -11 -32 -21 -46 -21 -32 0 -77 -43 -69 -64 9 -22 27 -20 70 9 25 17
50 25 78 25 49 0 59 -6 77 -44 9 -20 25 -33 47 -38 22 -6 32 -15 32 -27 0 -17
-77 -132 -97 -144 -5 -3 -26 28 -47 69 -46 89 -62 100 -121 84 -62 -17 -77
-11 -95 39 -33 97 -90 75 -120 -46 -8 -31 -19 -46 -44 -61 -28 -16 -35 -29
-47 -78 -14 -57 -15 -59 -52 -65 -46 -7 -50 -12 -66 -69 -8 -25 -30 -79 -51
-120 -60 -121 -60 -116 5 -146 30 -14 63 -37 72 -51 15 -23 15 -28 -7 -80 -22
-54 -23 -58 -6 -86 18 -32 10 -47 -26 -47 -10 0 -22 -9 -28 -20 -15 -28 2 -56
40 -63 41 -9 50 -35 21 -59 -31 -24 -61 -23 -117 7 -26 14 -60 25 -76 25 -43
0 -65 15 -71 50 l-6 30 -48 -26 c-83 -45 -183 -17 -183 50 0 67 53 74 85 12
11 -22 25 -41 31 -43 6 -2 37 25 69 59 l59 63 -50 3 c-69 3 -94 10 -94 26 0
14 30 26 92 40 36 8 86 61 110 115 10 25 23 84 27 131 8 86 25 135 57 161 30
25 74 91 74 113 0 13 -20 39 -52 68 l-53 47 22 22 c18 19 24 20 37 9 9 -7 16
-23 16 -36 0 -34 20 -41 42 -14 23 28 23 53 -2 125 -26 75 -26 79 10 115 49
50 33 130 -25 130 -20 0 -23 6 -28 73 -7 91 -39 179 -78 212 -17 14 -35 25
-40 25 -16 0 -10 19 19 52 40 46 44 65 26 104 -19 40 -27 46 -74 54 -32 5 -36
9 -47 55 -6 28 -12 60 -12 73 -1 21 2 22 33 16 53 -9 58 0 34 64 -31 84 -36
88 -70 55 -28 -27 -30 -27 -43 -9 -8 10 -30 67 -50 126 -48 145 -91 230 -178
357 -41 59 -93 141 -117 181 -61 106 -225 280 -328 348 -45 30 -85 61 -89 69
-10 28 -167 123 -336 205 -92 44 -167 85 -167 90 0 16 -56 39 -147 60 -48 11
-100 29 -115 40 -21 16 -54 22 -137 29 -89 7 -115 13 -137 30 -20 16 -35 20
-56 16 -15 -4 -43 -2 -60 4 -18 6 -84 15 -146 20 -62 5 -119 14 -127 21 -7 6
-17 25 -20 41 -4 16 -11 29 -16 29 -4 0 -30 -27 -56 -59 l-47 -60 -54 60 c-82
90 -151 117 -98 38 31 -47 37 -67 23 -76 -7 -4 -145 -11 -307 -14 -292 -6
-296 -7 -398 -37 -159 -47 -282 -55 -282 -17 0 15 36 27 140 45 86 16 153 49
220 111 l55 51 -35 -7 c-92 -17 -100 -17 -100 -7 0 39 164 109 278 119 37 3
75 10 85 15 28 14 20 53 -22 105 -83 106 -496 475 -626 560 -38 25 -88 58
-109 72 -58 38 -146 127 -146 146 0 10 17 35 39 56 45 45 83 51 105 17z m-157
-194 c7 -18 -9 -74 -37 -136 l-20 -43 3 81 c1 51 7 87 16 97 17 21 30 22 38 1z
m93 -130 c0 -47 -62 -155 -68 -120 -13 63 37 210 59 175 5 -8 9 -32 9 -55z
m2517 -490 c83 -17 171 -52 191 -77 10 -12 11 -21 2 -36 -13 -25 -36 -26 -78
-5 -18 8 -87 27 -154 41 -164 33 -213 60 -155 83 34 14 110 12 194 -6z m808
-525 c112 -92 366 -334 450 -429 112 -126 203 -252 254 -350 45 -87 76 -168
68 -176 -3 -3 -24 23 -48 58 -58 86 -151 196 -310 366 -358 383 -431 466 -463
529 -29 57 -18 58 49 2z m-423 -2018 c243 -63 654 -236 712 -300 39 -43 -14
-33 -201 37 -171 64 -425 149 -496 166 -29 7 -28 6 17 -53 46 -59 73 -88 157
-167 71 -66 249 -327 249 -365 0 -25 -27 -28 -131 -13 -173 24 -362 44 -669
69 -428 36 -490 47 -490 85 0 31 -30 37 -52 11 -10 -13 -18 -31 -18 -41 0 -33
-28 -50 -81 -50 -27 0 -49 5 -49 10 0 6 9 29 21 51 11 23 18 47 15 55 -8 21
-37 4 -106 -61 -64 -61 -107 -85 -150 -85 -45 0 -67 15 -91 62 -30 59 -69 221
-69 287 0 77 -16 97 -82 106 -84 11 -118 35 -118 82 0 12 12 14 62 11 l63 -3
20 40 c12 22 32 46 46 52 25 13 108 17 147 7 31 -9 28 -26 -13 -63 -19 -17
-35 -37 -35 -43 0 -7 40 -53 89 -103 57 -57 92 -102 96 -120 16 -75 39 -92 81
-60 29 22 46 19 131 -24 98 -49 253 -107 360 -134 l82 -22 26 25 c15 14 43 52
62 85 43 73 137 185 237 285 42 41 76 80 76 87 0 8 -11 18 -23 22 -30 12 -57
38 -57 56 0 20 28 45 50 45 10 0 70 -13 132 -29z m-378 -37 c57 -8 55 -24 -5
-42 -90 -26 -655 -62 -752 -48 -55 8 -55 30 1 45 45 13 232 30 437 40 226 11
266 12 319 5z m-1154 -230 c0 -15 -28 -52 -96 -127 -41 -45 -102 -121 -135
-169 -57 -83 -79 -104 -79 -75 1 41 72 154 164 260 63 73 146 136 146 111z
m-533 -226 c6 -7 23 -51 38 -98 37 -113 57 -151 99 -188 76 -66 154 -65 367 4
140 45 213 55 222 30 7 -17 -3 -26 -60 -55 -23 -12 -46 -29 -51 -39 -5 -9 -12
-57 -15 -105 -3 -65 -10 -93 -22 -108 -24 -25 -31 -24 -111 13 -63 30 -79 33
-190 36 -144 5 -174 -5 -192 -65 -17 -54 -50 -273 -58 -376 -3 -48 -10 -85
-15 -81 -14 8 -138 221 -162 278 -43 101 -19 456 39 585 21 47 27 53 49 49 14
-3 33 0 42 7 16 12 15 15 -15 43 -37 35 -38 39 -15 64 19 21 37 23 50 6z
m3583 -116 c0 -50 -29 -162 -86 -337 -79 -241 -156 -380 -233 -423 -40 -23
-71 -28 -71 -13 0 4 29 50 66 101 112 158 174 304 235 544 32 126 49 166 74
166 11 0 15 -11 15 -38z m230 -112 c37 -23 -6 -224 -104 -481 -69 -182 -89
-211 -124 -175 -14 14 -15 23 -4 76 7 34 29 102 48 153 19 50 53 150 75 221
43 140 73 216 86 216 4 0 15 -5 23 -10z m-2225 -20 c345 -24 698 -89 933 -171
182 -65 223 -101 202 -179 -23 -84 -180 -215 -339 -281 -223 -93 -751 -128
-1038 -70 -229 47 -429 147 -555 278 -112 117 -126 227 -39 306 110 99 437
145 836 117z m-1103 -622 c200 -203 346 -360 308 -332 -308 225 -523 430 -554
532 -18 55 40 9 246 -200z m3957 -102 c238 -375 263 -431 285 -644 l7 -63 -79
88 c-91 102 -170 161 -239 178 -84 21 -131 -7 -152 -91 -7 -28 -22 -51 -46
-70 -105 -85 -133 -116 -169 -191 -20 -42 -41 -72 -45 -67 -5 5 -22 68 -40
139 -56 229 -185 494 -303 622 -38 40 -68 80 -68 88 0 22 35 18 78 -9 65 -40
137 -74 175 -81 45 -9 48 -13 56 -79 5 -42 10 -52 27 -54 16 -2 31 9 55 42 18
25 40 46 49 46 10 0 54 -25 98 -55 109 -74 149 -92 165 -76 8 8 13 71 15 219
3 197 5 232 16 232 3 0 54 -78 115 -174z m-944 29 c43 -43 34 -72 -51 -166
-41 -46 -96 -114 -121 -152 -43 -65 -82 -97 -120 -97 -10 0 -38 -14 -62 -30
-50 -34 -61 -37 -61 -14 0 8 23 109 50 223 l51 207 97 26 c129 35 185 36 217
3z m-2525 -10 c169 -40 410 -132 410 -158 0 -16 -46 -37 -145 -66 -86 -25
-219 -88 -263 -126 -64 -54 -65 -51 72 -192 160 -166 235 -252 243 -281 3 -13
0 -35 -6 -48 -6 -14 -11 -29 -11 -34 0 -4 35 -12 78 -16 71 -7 74 -8 42 -16
-93 -23 -120 -49 -94 -86 20 -30 50 -28 126 8 77 37 146 40 196 10 39 -24 38
-41 -4 -52 -16 -4 -45 -16 -64 -27 -49 -27 -138 -41 -317 -48 -165 -7 -200 0
-228 43 -23 36 -44 30 -96 -27 l-48 -52 -61 6 c-70 8 -99 -2 -180 -57 -69 -48
-80 -47 -80 8 0 39 -5 49 -40 82 -22 21 -40 41 -40 44 0 3 22 17 48 32 89 50
106 94 44 110 -42 11 -42 35 0 70 l33 26 -19 56 c-11 31 -17 58 -14 61 2 3 19
-2 37 -11 18 -9 64 -20 102 -25 146 -18 199 -42 199 -89 0 -23 4 -30 20 -30
13 0 24 10 30 25 14 36 62 35 88 -2 28 -41 43 -94 40 -144 l-3 -44 38 -3 c21
-2 45 2 53 9 12 10 11 16 -6 44 -28 46 -25 58 20 84 22 12 40 26 40 31 0 32
-155 131 -275 175 -55 20 -181 76 -280 124 -280 137 -402 229 -393 293 4 33
54 37 92 7 24 -19 28 -27 23 -60 -6 -45 11 -64 48 -55 18 5 27 15 32 38 6 30
6 30 58 25 29 -3 72 -15 96 -26 23 -12 61 -21 83 -21 58 0 206 54 233 84 l21
25 -28 105 c-33 123 -41 186 -22 186 4 0 36 -7 72 -15z m1390 -84 c0 -6 -9
-25 -19 -43 -12 -21 -19 -53 -20 -88 0 -30 -9 -89 -21 -130 -55 -199 -53 -189
-35 -216 17 -27 106 -74 140 -74 19 0 37 -10 101 -55 36 -26 127 -24 205 3 42
15 60 17 68 9 30 -30 -3 -79 -66 -96 -54 -16 -610 -117 -716 -131 -134 -18
-197 1 -197 60 0 35 19 51 175 152 221 143 231 176 95 305 -19 19 -87 59 -150
90 -126 61 -180 96 -180 119 0 18 28 18 105 -1 101 -24 159 -19 255 21 179 76
260 99 260 75z m650 -94 c0 -72 -542 -340 -631 -312 -31 10 -15 20 93 60 116
42 207 86 306 147 98 60 205 118 220 118 6 0 12 -6 12 -13z m597 -50 c38 -53
126 -225 147 -290 19 -56 21 -107 5 -107 -19 0 -167 69 -276 128 l-102 55 28
36 c16 20 45 64 65 98 38 65 83 123 95 123 4 0 21 -19 38 -43z m-3408 -181
c15 -8 46 -35 69 -60 36 -39 41 -49 32 -66 -16 -29 -30 -34 -50 -15 -16 14
-32 17 -85 13 -36 -3 -67 -2 -70 2 -7 12 24 107 41 125 19 19 28 19 63 1z
m1005 -36 c80 -27 229 -48 478 -65 205 -14 248 -19 312 -32 27 -5 28 -6 10
-16 -28 -16 -344 -12 -501 7 -149 18 -308 63 -350 101 -34 30 -23 31 51 5z
m-1207 -65 c5 -16 -22 -55 -39 -55 -10 0 -11 54 -1 63 12 12 33 7 40 -8z m417
-94 c9 -14 -34 -46 -193 -146 -184 -116 -252 -178 -346 -320 -119 -177 -181
-227 -179 -143 2 77 194 330 326 431 164 124 368 217 392 178z m4046 -179 c31
-321 39 -701 16 -755 -13 -32 -96 -136 -96 -120 0 4 5 46 10 93 6 47 15 261
20 475 6 215 13 406 17 425 5 31 7 32 14 12 5 -12 13 -71 19 -130z m-1281 88
c209 -53 432 -144 570 -234 72 -46 99 -81 87 -111 -8 -21 -30 -14 -129 42
-102 57 -201 100 -436 189 -190 72 -281 116 -281 134 0 18 66 10 189 -20z
m-231 -73 c26 -27 52 -88 52 -120 0 -12 -13 -38 -30 -57 -36 -43 -38 -60 -5
-60 33 0 157 -117 185 -175 l21 -44 -27 -100 c-33 -123 -31 -123 -182 -47
-141 70 -225 103 -312 121 -102 22 -134 39 -225 125 -100 95 -133 120 -156
120 -32 0 -22 -37 22 -85 24 -26 39 -51 36 -59 -9 -23 -69 -30 -110 -12 -54
22 -60 71 -23 161 23 54 46 58 226 45 154 -12 210 -6 210 20 0 15 23 12 71
-10 59 -26 79 -26 79 3 -1 12 -7 33 -15 47 -36 63 8 83 68 31 46 -41 62 -29
59 44 -3 81 14 97 56 52z m-3297 -4 c38 -23 37 -42 -6 -83 -24 -23 -41 -52
-49 -85 -16 -57 -40 -348 -35 -415 4 -43 5 -45 34 -42 46 5 485 100 617 133
184 46 234 38 204 -34 -16 -39 -41 -57 -101 -73 l-40 -10 3 -167 c4 -187 0
-206 -61 -310 -22 -37 -37 -70 -33 -74 3 -3 33 2 67 12 52 16 62 17 70 4 14
-21 7 -40 -22 -61 -25 -19 -26 -19 -90 2 -124 42 -339 165 -445 255 l-42 36
-75 -103 c-41 -57 -91 -118 -111 -137 -45 -43 -58 -34 -82 57 -28 109 -38 122
-91 122 -40 0 -41 -6 -7 -51 42 -54 74 -131 74 -174 0 -48 20 -80 54 -89 28
-7 37 -33 26 -81 -12 -52 -37 -85 -64 -85 -35 0 -56 31 -72 108 -8 39 -27 102
-43 140 -59 144 -87 337 -78 537 6 130 22 195 58 246 18 26 24 47 24 95 1 71
22 111 116 228 94 117 135 137 200 99z m4370 -362 c108 -68 279 -351 299 -493
5 -34 15 -68 23 -75 12 -13 19 -11 48 15 49 42 71 51 139 59 33 3 64 11 67 17
4 6 10 36 14 67 6 55 30 114 71 179 16 24 25 57 29 108 4 50 12 81 26 99 29
40 41 38 53 -7 23 -84 -34 -269 -167 -550 -35 -74 -77 -151 -93 -171 -15 -20
-34 -55 -40 -79 -7 -24 -27 -67 -46 -97 -34 -54 -107 -133 -123 -133 -16 0
-21 44 -21 207 0 98 -4 164 -10 168 -6 4 -34 -5 -63 -20 -61 -29 -143 -45
-238 -45 -79 0 -152 -20 -199 -55 -47 -35 -99 -49 -152 -41 -74 11 -75 15 -21
97 26 41 56 94 67 119 10 25 25 60 32 79 8 18 47 83 85 143 96 149 119 205
129 310 8 82 22 128 38 128 5 0 28 -13 53 -29z m-190 -27 c4 -13 -2 -46 -17
-88 -13 -38 -27 -90 -30 -117 -5 -35 -13 -53 -29 -63 -13 -9 -27 -33 -33 -59
-13 -51 -23 -61 -78 -79 -38 -13 -39 -14 -39 -60 0 -25 -3 -49 -6 -52 -11 -11
-38 5 -44 25 -8 24 -69 56 -135 70 -55 12 -103 46 -125 90 -25 48 -19 70 38
124 68 64 136 100 212 114 81 15 179 64 211 107 24 31 29 33 47 21 11 -7 23
-22 28 -33z m-1826 -75 c297 -23 617 -92 892 -195 142 -52 365 -164 469 -233
107 -71 126 -88 149 -123 16 -26 16 -28 -10 -62 -73 -96 -527 -436 -582 -436
-13 0 -68 16 -121 36 -176 67 -346 107 -602 143 -482 69 -961 85 -1586 55
l-131 -7 -37 89 c-50 120 -86 245 -93 326 -7 80 8 111 95 189 152 135 419 209
832 229 189 9 534 4 725 -11z m-2176 -774 c138 -302 202 -385 414 -544 102
-77 133 -111 123 -136 -18 -47 -145 16 -269 135 -94 89 -149 160 -215 277 -70
125 -131 305 -132 388 0 43 12 25 79 -120z m4846 38 c56 -78 95 -158 110 -230
16 -76 20 -193 6 -193 -5 0 -23 44 -40 98 -18 53 -54 147 -81 207 -26 61 -51
122 -55 138 -11 44 20 34 60 -20z m-501 -5 c-28 -93 -162 -286 -288 -417 -114
-117 -186 -168 -186 -128 0 6 45 66 101 132 55 66 141 170 190 230 144 176
170 205 180 205 6 0 7 -9 3 -22z m934 -167 c84 -159 104 -222 106 -326 l1 -89
34 -7 c18 -4 40 -14 48 -22 24 -24 44 -190 46 -382 2 -189 -4 -235 -29 -235
-12 0 -14 -13 -8 -90 8 -107 -3 -116 -60 -47 -79 96 -78 109 12 193 54 52 63
79 26 79 -12 0 -20 -8 -22 -22 -3 -19 -10 -23 -42 -23 -29 0 -39 -4 -42 -17
-3 -13 -12 -3 -32 32 -16 28 -43 74 -60 104 -17 30 -52 69 -79 90 -54 41 -111
120 -134 186 -14 41 -13 49 1 85 9 22 16 50 16 63 1 38 38 108 85 158 24 26
47 60 51 75 4 15 3 86 -3 158 -5 72 -8 139 -5 149 4 16 6 16 22 2 9 -8 40 -60
68 -114z m-1508 104 c20 -24 3 -61 -45 -102 -49 -41 -55 -53 -26 -53 62 0 65
-27 11 -86 -22 -24 -40 -50 -40 -59 0 -8 15 -21 34 -29 28 -12 36 -22 42 -52
15 -81 -34 -242 -91 -294 l-27 -25 -201 2 c-111 1 -289 8 -395 17 l-194 15
-58 -62 c-88 -95 -111 -125 -140 -180 -24 -46 -32 -54 -78 -69 -67 -22 -127
-66 -195 -143 l-55 -62 53 -32 c54 -33 90 -45 160 -57 30 -4 50 -17 83 -52
l43 -47 114 3 c123 3 155 -1 155 -23 0 -34 -63 -38 -499 -32 -234 4 -464 11
-510 17 -59 7 -86 7 -91 0 -11 -18 -71 -30 -145 -30 -128 0 -114 24 50 83 109
38 146 42 178 17 33 -26 59 -15 83 33 9 18 39 56 68 85 48 50 50 54 32 67 -10
8 -52 26 -95 41 -85 31 -111 49 -145 109 -28 47 -159 176 -231 226 -42 29 -59
34 -105 34 -30 0 -71 -3 -90 -7 -35 -8 -35 -7 30 52 82 75 94 79 129 46 31
-30 49 -32 77 -11 28 21 52 18 87 -11 28 -24 36 -26 90 -19 32 3 64 8 71 11
29 11 46 -25 46 -94 0 -70 17 -112 45 -112 26 0 35 37 35 138 l0 99 183 12
c332 22 364 31 425 111 37 48 31 58 -21 41 l-32 -11 42 40 c36 34 46 39 63 30
37 -20 42 -44 16 -79 -13 -18 -29 -52 -35 -76 -9 -36 -19 -50 -54 -72 -62 -40
-87 -64 -87 -86 0 -17 5 -19 37 -14 56 10 115 55 133 104 21 57 44 80 101 98
29 10 59 29 75 48 38 45 52 52 115 52 66 1 99 19 137 77 15 23 40 54 57 71 26
26 35 29 75 24 62 -6 193 -59 265 -107 33 -21 68 -40 78 -40 25 0 32 28 12 50
-9 10 -21 38 -26 61 -12 53 -25 69 -54 69 -13 0 -33 8 -45 18 -32 26 -19 56
40 88 27 15 68 49 91 76 58 69 122 96 149 63z m-3144 -104 c40 -24 82 -80 99
-128 14 -40 19 -44 77 -67 26 -10 41 -25 51 -49 12 -27 29 -41 83 -68 39 -19
88 -55 115 -82 38 -40 54 -50 90 -54 51 -7 103 -31 148 -69 43 -36 53 -57 41
-88 -14 -38 -57 -35 -113 8 -93 71 -130 75 -175 19 -27 -35 -33 -37 -93 -40
-77 -5 -103 7 -140 62 -28 41 -61 53 -67 23 -2 -9 6 -26 17 -37 23 -23 28 -60
9 -62 -7 -1 -29 -1 -48 0 -54 3 -75 -18 -73 -73 2 -69 30 -140 74 -193 22 -27
44 -64 49 -83 5 -19 32 -62 60 -95 27 -33 50 -64 50 -69 0 -18 -63 6 -240 93
-167 83 -240 129 -240 154 0 18 65 -3 102 -33 20 -17 42 -30 48 -30 21 0 22
30 1 56 -41 53 -24 158 29 176 19 6 4 55 -21 68 -24 13 -49 -2 -49 -29 0 -24
-34 -70 -66 -92 -18 -12 -47 -19 -76 -19 -36 0 -50 -4 -57 -19 -6 -10 -18 -21
-26 -25 -22 -8 -55 11 -55 32 -1 26 -20 46 -90 94 -36 25 -65 51 -65 58 0 26
51 36 98 20 34 -12 43 -20 45 -43 4 -37 40 -56 59 -31 7 10 13 26 13 36 0 23
9 22 40 -2 33 -26 40 -25 40 4 0 40 23 49 153 57 67 4 123 8 125 8 10 3 -3 51
-27 100 -44 87 -71 174 -71 232 0 34 -9 72 -30 119 -16 38 -30 84 -30 104 0
70 69 98 136 57z m974 -16 c7 -8 42 -24 79 -35 88 -26 112 -53 200 -220 40
-74 82 -143 94 -153 18 -16 31 -18 89 -12 58 6 68 5 68 -9 0 -27 -36 -36 -145
-36 -58 0 -127 -5 -152 -12 l-46 -11 -30 37 -30 37 -102 -7 -102 -7 -22 31
c-28 40 -44 44 -124 33 -103 -15 -156 7 -172 70 -10 40 35 81 122 114 93 34
117 54 153 125 16 32 35 60 42 63 26 11 66 7 78 -8z m2922 -321 c17 -9 60 -18
94 -19 70 -4 171 -50 239 -108 45 -39 57 -91 45 -190 -9 -75 -34 -125 -109
-214 -26 -32 -94 -121 -151 -198 -145 -198 -178 -230 -194 -189 -12 30 -6 73
19 142 29 80 31 99 11 121 -35 39 -106 327 -106 431 0 62 12 94 56 142 19 21
37 52 41 68 6 34 12 36 55 14z m-4813 -78 c43 -46 -8 -73 -170 -91 -83 -9
-129 -19 -153 -33 -24 -14 -33 -16 -30 -7 13 34 247 155 299 155 20 0 40 -9
54 -24z m2807 10 c7 -19 -13 -56 -31 -56 -23 0 -28 19 -11 45 18 28 34 32 42
11z m1713 -85 c25 -16 -11 -54 -87 -94 -83 -44 -167 -67 -242 -67 -31 0 -60
-3 -63 -7 -4 -3 9 -16 29 -27 80 -45 72 -87 -32 -160 -40 -28 -98 -78 -130
-111 -33 -34 -87 -75 -122 -93 -34 -19 -90 -55 -123 -82 -65 -52 -113 -70
-132 -50 -21 21 159 170 205 170 20 0 68 42 68 60 0 6 -12 15 -26 20 -24 9
-26 14 -21 46 9 57 105 219 158 269 57 53 113 71 254 79 79 5 110 12 145 31
47 25 95 31 119 16z m-4429 -20 c0 -19 -52 -71 -123 -122 -117 -86 -195 -158
-285 -264 -134 -156 -339 -484 -295 -472 10 3 43 12 73 21 30 8 85 33 122 56
37 22 80 43 95 46 33 6 192 -33 285 -70 67 -27 85 -30 113 -20 19 8 45 55 45
84 0 33 28 81 79 133 l46 49 -45 36 c-109 91 -106 86 -93 129 6 21 23 69 38
108 14 38 29 98 32 132 l6 64 38 -40 c21 -22 70 -60 107 -84 80 -52 118 -97
138 -164 15 -51 11 -93 -13 -131 -13 -21 -19 -23 -69 -16 l-55 6 3 -63 3 -64
-31 3 c-26 3 -37 -4 -69 -40 -41 -48 -123 -209 -155 -308 -29 -85 -50 -199
-50 -263 0 -111 -39 -177 -105 -177 -70 0 -238 109 -291 190 -34 51 -27 74 18
64 71 -15 86 -1 44 41 -36 36 -83 34 -132 -6 -45 -36 -70 -47 -138 -60 -56
-10 -76 -1 -76 38 0 14 -7 37 -16 53 -19 31 -69 64 -84 55 -13 -8 -27 -65 -35
-144 -9 -90 -27 -121 -69 -121 -47 0 -68 27 -64 81 3 40 6 44 32 49 26 4 32
12 48 65 22 76 22 75 -5 75 -56 0 -155 -136 -172 -240 -7 -44 8 -75 32 -65 24
9 54 -15 74 -58 25 -57 24 -76 -11 -160 -17 -39 -34 -91 -37 -114 -7 -51 -27
-83 -42 -68 -6 6 -15 41 -20 79 -7 50 -18 81 -39 110 -53 75 -68 171 -36 235
9 17 22 72 30 123 16 94 42 161 69 171 19 8 19 40 -1 96 -9 27 -12 56 -8 75
17 77 104 236 130 236 10 0 12 -10 8 -42 -5 -35 -2 -48 16 -71 41 -52 134 -84
157 -54 6 6 13 31 17 54 25 168 282 474 544 650 109 73 222 121 222 94z m4518
-130 c5 -46 -6 -101 -20 -101 -21 0 -78 51 -78 70 0 23 57 72 79 68 10 -2 17
-16 19 -37z m-837 -135 c-16 -19 -199 -108 -320 -155 -153 -60 -331 -100 -460
-104 -126 -4 -107 31 24 44 165 17 445 98 630 182 103 47 147 59 126 33z
m-2341 -87 c85 -27 226 -71 314 -99 87 -27 186 -54 220 -60 56 -10 114 -36
104 -46 -8 -7 -244 35 -359 65 -167 43 -420 141 -481 186 -23 17 -23 17 12 10
19 -4 104 -30 190 -56z m3917 9 c-3 -8 -6 -5 -6 6 -1 11 2 17 5 13 3 -3 4 -12
1 -19z m-11 -275 c-10 -321 -37 -462 -110 -587 -28 -48 -66 -79 -66 -53 0 8
23 85 50 171 62 195 96 359 112 539 7 75 14 137 17 137 2 0 1 -93 -3 -207z
m-1243 89 c19 -21 47 -85 47 -107 0 -10 -10 -15 -32 -15 -18 0 -39 -4 -46 -9
-29 -18 -5 -45 81 -92 49 -27 106 -64 128 -83 48 -44 85 -55 107 -32 15 14 13
19 -17 62 -18 26 -29 50 -24 55 7 7 297 69 324 69 5 0 -13 -44 -40 -98 -27
-54 -59 -131 -71 -171 -33 -108 -87 -133 -106 -48 -10 47 -20 55 -82 63 -70 8
-106 22 -156 63 -38 30 -75 45 -147 56 -22 3 -55 22 -87 49 -29 25 -61 48 -72
51 -27 9 -25 21 12 64 35 40 148 141 158 141 4 0 14 -8 23 -18z m-3320 -76
c145 -77 295 -130 535 -190 387 -96 614 -126 1033 -133 502 -9 867 26 1158
109 128 37 174 34 327 -17 148 -49 415 -185 493 -251 37 -31 41 -73 12 -119
-27 -43 -122 -141 -306 -316 -195 -186 -269 -248 -345 -288 -77 -41 -83 -40
-78 10 l4 42 -77 -7 c-134 -11 -137 17 -24 195 l44 67 -169 -82 c-169 -83
-190 -91 -312 -120 -82 -20 -108 -20 -108 -2 0 40 111 230 210 359 12 15 18
27 13 27 -5 0 -85 -63 -179 -141 -196 -164 -282 -223 -361 -251 -54 -19 -58
-19 -70 -2 -18 25 -17 202 3 289 8 39 18 88 20 110 l5 40 -21 -25 c-13 -14
-73 -95 -135 -181 -135 -185 -172 -221 -251 -244 -32 -9 -69 -25 -82 -36 -28
-21 -48 -24 -57 -8 -4 5 -20 62 -35 125 -28 114 -55 169 -123 259 -79 104
-128 134 -84 52 19 -37 22 -56 22 -167 0 -90 -5 -133 -15 -155 -22 -43 -49
-39 -66 10 -7 22 -26 51 -41 64 l-27 24 -7 -27 c-22 -83 -89 -72 -89 14 0 42
-27 98 -52 106 -11 3 -33 0 -49 -6 -44 -19 -69 -7 -157 75 -45 41 -89 75 -97
75 -16 0 -16 0 12 -114 19 -77 12 -101 -37 -126 -54 -28 -64 -26 -83 18 -21
47 -183 182 -219 182 -4 0 -8 -37 -10 -81 -2 -64 -7 -84 -20 -93 -24 -14 -69
9 -140 74 -66 59 -68 56 -44 -57 7 -35 12 -63 11 -63 -2 0 -41 18 -88 41 -47
22 -91 38 -98 34 -16 -10 -4 -121 16 -152 23 -35 8 -28 -71 33 -137 104 -272
273 -293 365 -17 73 -13 149 12 209 58 139 175 280 352 421 61 49 111 88 113
89 2 0 58 -29 125 -64z m4122 -391 c13 -22 40 -95 59 -163 19 -68 45 -140 58
-160 12 -20 25 -54 28 -76 7 -54 26 -56 98 -12 88 55 127 45 147 -36 4 -15 14
-33 22 -39 11 -10 19 -7 40 14 25 25 26 27 10 45 -40 44 -3 99 98 147 68 32
80 32 58 -1 -16 -25 -16 -28 0 -56 9 -16 17 -35 17 -42 0 -6 -20 -43 -45 -80
-56 -86 -58 -101 -10 -92 26 5 35 3 35 -7 0 -28 -30 -53 -112 -92 l-83 -40 3
-40 c6 -76 -76 -214 -186 -315 -76 -70 -91 -92 -92 -136 0 -40 -22 -69 -45
-60 -15 5 -17 16 -13 64 2 31 13 74 23 95 16 35 17 56 12 225 -10 287 -20 313
-104 293 -26 -7 -68 -23 -93 -37 -181 -98 -379 -141 -460 -99 -26 13 -34 14
-63 1 -42 -17 -107 -73 -107 -92 0 -29 -30 -12 -65 37 -21 28 -41 47 -45 42
-4 -4 -21 -55 -38 -113 -53 -182 -58 -190 -132 -190 -100 0 -109 -32 -25 -86
83 -52 91 -94 29 -148 -13 -12 -40 -50 -58 -86 -35 -65 -35 -65 -45 -37 -6 15
-14 39 -17 52 -3 13 -13 30 -21 36 -27 23 -34 -10 -27 -138 6 -112 5 -125 -14
-155 -11 -18 -35 -44 -52 -57 -18 -13 -28 -27 -23 -31 27 -25 185 -69 340 -94
111 -17 144 -32 154 -68 9 -34 -2 -42 -47 -34 -35 7 -63 -3 -98 -35 -21 -20
-76 -39 -113 -39 -12 0 -66 -23 -120 -52 -238 -125 -246 -129 -267 -121 -37
12 -62 5 -176 -52 -118 -57 -149 -65 -170 -40 -10 12 -9 19 3 37 31 48 95 111
182 181 82 66 94 81 140 167 35 67 58 99 78 108 40 19 35 47 -15 76 -69 39
-143 57 -304 71 -214 20 -289 50 -441 179 -39 34 -69 64 -65 68 4 4 46 18 93
32 88 25 115 25 157 -2 27 -17 53 -8 113 39 51 41 138 79 179 79 44 1 103 27
164 74 26 20 57 36 69 36 29 1 98 33 116 53 16 21 57 21 91 2 58 -33 100 -11
100 52 0 66 148 234 266 302 75 44 116 82 164 151 53 77 69 89 135 100 73 12
107 37 120 90 10 40 35 60 130 104 86 41 125 69 108 79 -4 2 -35 8 -67 12 -33
4 -65 9 -73 12 -21 8 -15 39 12 57 21 14 87 134 109 200 6 17 16 11 77 -50 39
-38 81 -87 94 -109z m909 129 c15 -75 -46 -197 -152 -306 -47 -49 -80 -64 -68
-30 4 9 34 63 67 118 33 56 69 128 80 160 12 32 25 67 30 76 16 29 36 21 43
-18z m-6448 -502 c32 -123 214 -428 351 -587 91 -106 113 -135 113 -151 0 -45
-168 79 -255 188 -107 135 -236 421 -252 559 -5 45 -4 51 12 48 12 -3 22 -21
31 -57z m9627 -112 c54 -34 77 -72 60 -98 -15 -23 -56 -17 -118 16 -51 28 -74
64 -62 96 10 26 67 20 120 -14z m-8893 -35 c5 -30 16 -36 83 -50 28 -6 28 -6
21 -63 -13 -116 46 -256 126 -301 68 -38 67 -25 -9 95 -41 65 -51 126 -26 154
43 47 73 10 82 -99 3 -48 10 -81 17 -81 6 0 25 16 42 37 l30 36 25 -49 c21
-42 31 -52 74 -68 77 -29 80 -31 85 -72 6 -44 28 -52 46 -16 l11 22 38 -26
c55 -37 77 -44 182 -54 108 -10 156 -31 130 -57 -9 -9 -45 -18 -90 -23 -49 -5
-87 -15 -110 -29 -24 -15 -43 -19 -65 -15 -22 5 -38 0 -62 -17 -29 -22 -42
-24 -148 -24 -105 0 -120 2 -149 23 -40 29 -45 28 -67 -8 -24 -42 -56 -70 -78
-70 -10 0 -37 9 -59 21 -23 11 -68 25 -100 31 -43 7 -64 16 -74 32 -15 22 -40
178 -51 313 -8 93 -2 107 48 117 41 8 58 23 58 52 0 25 -34 54 -62 54 -28 0
-58 37 -58 71 0 22 10 41 35 66 41 41 68 40 75 -2z m8767 -84 c95 -75 151
-157 125 -183 -16 -16 -57 4 -78 39 -24 39 -66 83 -78 83 -36 0 -74 81 -43 93
21 9 24 8 74 -32z m-71 -116 c51 -42 134 -150 134 -175 0 -31 -23 -41 -51 -22
-52 35 -179 188 -179 215 0 29 49 20 96 -18z m-3896 -10 c0 -56 -108 -202
-278 -378 -216 -222 -367 -335 -562 -418 -105 -45 -140 -54 -140 -37 0 14 57
54 169 118 192 110 500 380 658 579 101 126 124 151 140 151 7 0 13 -7 13 -15z
m835 -44 c105 -11 267 -27 360 -36 221 -22 237 -25 252 -55 6 -14 27 -97 47
-185 47 -208 81 -318 110 -352 l24 -28 233 0 c241 0 309 6 309 29 0 17 30 43
55 48 30 5 30 -26 1 -82 -14 -27 -26 -56 -26 -64 0 -7 18 -36 40 -62 49 -59
56 -81 40 -128 -14 -43 -25 -46 -35 -8 -10 40 -33 72 -53 72 -10 0 -47 -21
-82 -47 -86 -64 -121 -64 -282 1 -172 70 -218 100 -248 163 -40 84 -139 173
-176 159 -22 -8 -17 -22 21 -61 46 -46 38 -59 -33 -52 -80 8 -110 30 -468 341
-82 71 -173 144 -201 164 -52 34 -104 102 -118 152 -3 14 -9 33 -12 44 -4 16
-1 18 23 13 16 -4 115 -15 219 -26z m3013 -117 c90 -109 111 -147 92 -169 -7
-8 -21 -15 -30 -15 -40 0 -143 161 -157 244 -9 56 9 45 95 -60z m-134 -6 c57
-100 115 -298 88 -298 -16 0 -50 45 -80 105 -17 33 -42 75 -56 94 -31 41 -42
91 -27 120 19 34 47 26 75 -21z m-3064 -178 c224 -196 564 -427 857 -582 l102
-54 -48 -16 c-63 -20 -93 -8 -151 60 l-43 50 -88 -61 c-52 -35 -93 -58 -102
-54 -9 3 -22 35 -32 81 -9 42 -18 76 -20 76 -2 0 -28 -38 -59 -84 -55 -83 -83
-107 -96 -85 -4 6 -10 41 -13 77 -5 64 -52 263 -77 327 -11 30 -12 29 -71 -85
-60 -116 -123 -210 -146 -218 -9 -2 -13 8 -13 30 0 55 -10 61 -79 53 -42 -5
-61 -4 -61 4 0 6 29 84 65 173 36 89 63 163 61 166 -3 2 -51 -29 -108 -69
-131 -92 -239 -159 -255 -159 -16 0 -16 21 -1 71 6 22 8 42 5 45 -4 4 -23 -6
-44 -22 l-38 -28 35 44 c20 25 94 118 165 207 113 143 130 161 144 150 9 -8
59 -51 111 -97z m2957 5 c60 -109 86 -227 44 -200 -25 15 -126 239 -115 256
13 22 38 2 71 -56z m-133 -33 c9 -11 23 -43 31 -73 8 -30 23 -72 34 -94 23
-42 29 -129 10 -141 -6 -3 -18 0 -26 8 -13 14 -123 288 -123 309 0 16 56 9 74
-9z m-7060 -32 c34 -13 33 -34 -4 -62 -16 -12 -30 -28 -30 -35 0 -26 55 -33
275 -33 185 0 232 -3 266 -16 30 -13 58 -15 110 -11 l70 6 -22 -35 c-26 -43
-15 -60 46 -69 67 -11 85 -1 85 45 0 63 49 77 135 39 54 -24 95 -19 95 11 0
25 34 35 121 35 109 0 140 -49 77 -121 -45 -51 -82 -64 -186 -64 -67 0 -93 -4
-102 -15 -10 -13 -7 -17 22 -29 19 -8 46 -18 60 -21 31 -8 73 -49 64 -63 -3
-6 -24 -13 -46 -17 -39 -7 -59 -20 -159 -102 -28 -23 -77 -51 -108 -63 -50
-19 -72 -21 -156 -17 -53 3 -95 2 -92 -3 2 -4 45 -31 94 -60 120 -70 249 -169
342 -260 77 -76 100 -113 81 -132 -16 -16 -179 -22 -262 -9 -41 6 -103 25
-137 41 -73 36 -73 36 -123 10 -47 -24 -107 -26 -139 -4 -30 21 -51 72 -51
124 0 45 -26 80 -60 80 -20 0 -60 -32 -60 -49 0 -4 11 -25 25 -45 29 -43 31
-59 10 -76 -34 -29 -218 -5 -270 34 -19 15 -19 15 10 16 65 1 73 39 16 77 -39
27 -87 29 -138 8 -58 -24 -97 -20 -127 16 -48 56 -28 80 45 55 62 -22 130 -20
257 9 128 29 172 31 213 10 38 -20 49 -13 49 35 0 29 8 48 30 73 35 40 36 47
14 90 -31 61 -104 135 -189 193 -47 31 -90 65 -95 75 -15 26 -12 65 5 79 25
21 17 39 -22 49 -21 6 -65 18 -97 26 -64 18 -126 68 -126 102 0 58 110 101
184 73z m6949 -18 c21 -23 49 -197 45 -282 -3 -58 -5 -65 -25 -68 -27 -4 -38
17 -47 88 -4 30 -21 86 -37 125 -33 80 -37 129 -11 144 26 16 57 13 75 -7z
m-160 -70 c25 -28 37 -69 46 -166 11 -109 3 -175 -22 -190 -28 -17 -53 21 -60
93 -4 33 -16 86 -27 118 -27 76 -26 108 5 138 29 30 37 31 58 7z m-145 -62 c9
-18 12 -64 9 -175 -4 -159 -16 -216 -41 -196 -29 25 -54 301 -33 374 10 36 45
34 65 -3z m-7856 3 c9 -10 29 -47 46 -83 16 -36 50 -93 76 -128 72 -97 86
-129 86 -197 0 -38 8 -76 20 -104 11 -24 20 -47 20 -52 0 -18 -38 -6 -140 44
-92 46 -108 57 -128 95 -13 23 -29 42 -37 42 -7 0 -38 -12 -69 -26 -32 -14
-60 -23 -64 -19 -4 3 -9 42 -13 85 -9 123 -41 140 -74 39 -10 -28 -22 -48 -28
-46 -24 8 -57 90 -57 143 0 66 -20 83 -74 60 -18 -8 -37 -19 -40 -25 -10 -16
-53 -12 -126 12 -51 17 -65 26 -65 42 0 17 10 21 60 29 56 7 105 22 233 68
103 37 251 21 159 -17 -20 -8 -52 -15 -71 -15 -40 0 -86 -15 -86 -29 0 -5 16
-15 36 -21 47 -16 114 -5 135 21 11 16 31 22 80 26 75 7 91 16 83 49 -7 29 15
33 38 7z m7247 -150 c5 -144 -27 -272 -81 -330 -30 -32 -52 -30 -45 5 7 40 34
225 46 321 6 47 18 96 27 109 15 23 17 23 32 8 13 -13 18 -40 21 -113z m214
85 c15 -18 17 -32 12 -83 -23 -210 -83 -352 -135 -320 -24 15 -4 332 25 402
14 33 17 35 48 29 17 -3 40 -16 50 -28z m200 15 c27 -30 40 -108 34 -201 -9
-140 -52 -228 -109 -220 -22 3 -23 7 -26 93 -4 107 13 263 33 311 16 38 42 45
68 17z m-7244 -99 c147 -33 561 -151 716 -204 122 -42 188 -72 216 -97 18 -16
14 -53 -6 -53 -31 0 -801 249 -962 311 -104 41 -146 69 -103 69 12 0 75 -12
139 -26z m0 -178 c25 -29 -21 -76 -73 -76 -34 0 -35 32 -1 65 27 28 57 32 74
11z m7711 -126 c-8 -5 -19 -10 -25 -10 -5 0 -3 5 5 10 8 5 20 10 25 10 6 0 3
-5 -5 -10z m-4866 -19 c18 -7 18 -8 -5 -25 -46 -32 -177 -66 -300 -77 -157
-14 -825 -6 -892 11 -102 25 -34 33 415 46 399 11 511 19 673 44 66 10 86 10
109 1z"/>
<path d="M10679 14786 c-27 -59 21 -119 170 -210 127 -78 125 -78 117 -30 -19
100 -65 163 -130 180 -15 3 -48 24 -73 45 -51 45 -69 48 -84 15z"/>
<path d="M11135 14460 c-9 -15 24 -70 50 -82 55 -25 78 33 29 71 -28 22 -69
28 -79 11z"/>
<path d="M11630 14349 c-19 -11 -51 -19 -70 -19 -74 0 -78 -33 -9 -71 35 -20
47 -34 62 -74 20 -55 39 -75 74 -75 46 0 51 70 7 111 -28 26 -31 39 -8 39 9 0
56 -38 103 -85 48 -47 93 -85 99 -85 17 0 15 36 -5 68 -29 47 -87 103 -121
118 -24 10 -38 25 -49 54 -18 45 -30 47 -83 19z"/>
<path d="M11910 14271 c-29 -55 51 -144 86 -96 20 27 17 58 -7 89 -24 31 -64
34 -79 7z"/>
<path d="M11437 14158 c-8 -13 -20 -45 -26 -72 -7 -27 -19 -62 -27 -77 -20
-40 -18 -46 20 -59 37 -12 73 -3 96 25 24 29 20 137 -6 171 -27 37 -40 40 -57
12z"/>
<path d="M12031 14111 c-16 -30 -13 -71 5 -78 29 -11 49 11 49 53 0 32 -4 40
-22 42 -14 2 -26 -4 -32 -17z"/>
<path d="M12154 14053 c-9 -50 10 -160 32 -184 22 -24 35 -24 86 2 l41 21 33
-38 c36 -43 50 -40 45 12 -2 29 1 34 18 34 12 0 30 9 42 21 16 16 18 23 9 34
-18 22 -73 28 -127 15 -26 -6 -59 -14 -72 -17 -29 -7 -51 18 -51 58 0 36 -20
79 -36 79 -7 0 -16 -17 -20 -37z"/>
<path d="M11602 14069 c-43 -16 -17 -49 40 -49 31 0 38 4 38 19 0 24 -46 42
-78 30z"/>
<path d="M11771 14046 c-7 -8 -9 -25 -6 -39 15 -60 81 -76 99 -25 8 23 6 32
-14 53 -26 28 -61 33 -79 11z"/>
<path d="M11948 14007 c-24 -56 -23 -83 4 -101 32 -23 57 -20 69 8 9 20 7 34
-14 80 -14 31 -30 56 -34 56 -4 0 -16 -19 -25 -43z"/>
<path d="M12523 13944 c-8 -21 23 -52 38 -37 8 8 8 17 0 32 -14 25 -29 27 -38
5z"/>
<path d="M12700 13902 c0 -32 34 -82 56 -82 7 0 17 12 20 26 8 31 -23 77 -55
82 -17 3 -21 -2 -21 -26z"/>
<path d="M12872 13883 c-5 -10 -12 -33 -16 -51 -3 -19 -16 -48 -28 -64 l-22
-31 23 -39 c13 -23 20 -47 16 -58 -9 -30 29 -26 53 5 23 29 45 141 40 206 -3
39 -6 44 -30 47 -18 2 -30 -3 -36 -15z"/>
<path d="M12462 13858 c-30 -30 0 -75 42 -64 29 7 43 41 26 61 -15 18 -52 19
-68 3z"/>
<path d="M12620 13735 c-9 -11 -10 -19 -3 -26 14 -14 43 0 43 22 0 23 -23 25
-40 4z"/>
<path d="M12590 13631 c0 -10 7 -24 16 -32 13 -10 17 -10 24 1 11 18 -6 50
-25 50 -8 0 -15 -8 -15 -19z"/>
<path d="M12894 13546 c-9 -23 0 -51 17 -54 21 -4 32 24 19 49 -13 23 -28 25
-36 5z"/>
<path d="M12929 13399 c-7 -13 -7 -25 -2 -30 13 -13 58 24 49 39 -11 19 -34
14 -47 -9z"/>
<path d="M13211 13036 c-9 -11 -10 -20 -1 -35 19 -37 80 -21 80 20 0 29 -58
40 -79 15z"/>
<path d="M13348 12839 c-39 -22 -6 -59 33 -38 23 12 22 42 -1 46 -8 2 -23 -2
-32 -8z"/>
<path d="M13470 12835 c-16 -19 -9 -45 16 -61 27 -19 60 2 50 33 -9 28 -51 46
-66 28z"/>
<path d="M13787 12703 c-12 -12 -7 -69 7 -89 14 -19 15 -19 40 5 32 30 32 36
1 66 -25 26 -37 30 -48 18z"/>
<path d="M13487 12633 c-19 -19 18 -133 43 -133 13 0 13 96 0 121 -11 19 -31
25 -43 12z"/>
<path d="M13600 12620 c0 -27 20 -68 36 -74 20 -8 18 38 -2 69 -20 30 -34 32
-34 5z"/>
<path d="M13904 12587 c-10 -26 45 -111 62 -94 10 9 -15 73 -36 92 -17 16 -20
16 -26 2z"/>
<path d="M13800 12550 c-25 -25 -25 -32 -1 -54 24 -22 65 -17 69 7 4 20 -23
67 -38 67 -6 0 -19 -9 -30 -20z"/>
<path d="M13757 12463 c-4 -3 -7 -15 -7 -25 0 -23 52 -158 61 -158 10 0 19 98
12 131 -7 38 -49 70 -66 52z"/>
<path d="M13682 12348 c-23 -23 -8 -88 31 -136 16 -20 27 5 27 65 0 66 -28
101 -58 71z"/>
<path d="M13884 11545 c-23 -23 -24 -26 -10 -53 8 -16 22 -35 31 -42 38 -32
75 68 39 104 -21 22 -31 20 -60 -9z"/>
<path d="M14034 11486 c-9 -36 -1 -71 16 -71 20 0 41 45 33 73 -7 30 -41 29
-49 -2z"/>
<path d="M13856 11384 c-11 -10 -16 -28 -14 -48 2 -25 7 -31 28 -31 30 0 52
38 41 69 -10 27 -34 31 -55 10z"/>
<path d="M13633 10563 c-20 -8 -15 -68 7 -88 39 -35 68 25 34 73 -16 23 -20
24 -41 15z"/>
<path d="M13637 10393 c-14 -13 -7 -33 11 -33 19 0 42 18 42 32 0 10 -44 11
-53 1z"/>
<path d="M12724 11586 c-9 -24 21 -55 38 -38 10 10 8 17 -9 34 -21 20 -23 20
-29 4z"/>
<path d="M11388 11544 c-11 -23 -10 -29 11 -45 21 -17 26 -18 45 -6 41 27 27
77 -20 77 -17 0 -28 -9 -36 -26z"/>
<path d="M12555 11500 c-13 -21 51 -70 90 -70 23 0 19 46 -7 64 -26 18 -74 21
-83 6z"/>
<path d="M11467 11412 c-22 -24 -21 -35 1 -55 25 -23 39 -21 53 4 8 16 8 28 0
45 -13 29 -32 31 -54 6z"/>
<path d="M12510 11381 c20 -38 103 -75 123 -55 22 22 -53 74 -108 74 -22 0
-24 -3 -15 -19z"/>
<path d="M12954 11325 c-3 -8 -3 -19 1 -25 9 -15 65 -13 65 3 0 33 -55 51 -66
22z"/>
<path d="M12732 11318 c-27 -27 0 -58 61 -72 41 -10 47 18 11 55 -30 31 -53
36 -72 17z"/>
<path d="M12444 11275 c-9 -23 4 -47 23 -43 22 4 30 38 11 49 -19 13 -28 11
-34 -6z"/>
<path d="M11512 11248 c-13 -13 -16 -50 -6 -61 15 -15 45 15 42 40 -3 30 -18
39 -36 21z"/>
<path d="M12623 11253 c-22 -8 -14 -41 14 -63 29 -23 46 -22 51 4 6 29 -38 68
-65 59z"/>
<path d="M12912 11208 c-19 -19 -14 -36 13 -54 20 -13 28 -14 40 -4 20 17 19
33 -3 53 -22 20 -34 21 -50 5z"/>
<path d="M10654 11005 c-24 -37 -7 -80 32 -80 22 0 31 6 38 27 22 61 -36 105
-70 53z"/>
<path d="M11185 10895 c-18 -17 -25 -35 -25 -63 0 -43 23 -83 39 -67 19 19 72
136 66 145 -11 18 -56 10 -80 -15z"/>
<path d="M10775 10879 c-45 -25 -60 -74 -30 -99 12 -10 22 -6 56 28 43 44 49
75 14 79 -11 2 -29 -2 -40 -8z"/>
<path d="M10964 10876 c-9 -24 4 -48 23 -44 12 2 18 12 18 28 0 29 -32 41 -41
16z"/>
<path d="M10602 10838 c-16 -16 -15 -55 2 -61 20 -8 36 13 36 45 0 30 -17 37
-38 16z"/>
<path d="M10572 10708 c-19 -19 -14 -49 16 -102 36 -66 52 -70 53 -14 2 61 -2
90 -12 111 -11 20 -40 22 -57 5z"/>
<path d="M15114 10135 c-8 -21 2 -45 19 -45 8 0 20 7 27 15 10 12 10 18 0 30
-7 8 -19 15 -27 15 -7 0 -16 -7 -19 -15z"/>
<path d="M15226 9988 c-9 -13 -16 -43 -16 -69 0 -53 21 -79 63 -79 20 0 28 6
33 26 11 44 -28 144 -57 144 -4 0 -15 -10 -23 -22z"/>
<path d="M14679 9971 c-16 -16 -29 -34 -29 -40 0 -15 29 -41 46 -41 26 0 64
47 64 80 0 26 -4 30 -26 30 -15 0 -38 -12 -55 -29z"/>
<path d="M15126 9981 c-21 -23 -18 -54 7 -59 25 -5 45 44 26 64 -14 13 -17 12
-33 -5z"/>
<path d="M14917 9943 c-4 -3 -7 -19 -7 -35 0 -21 5 -28 19 -28 25 0 34 26 18
50 -13 21 -20 24 -30 13z"/>
<path d="M14805 9910 c-9 -15 15 -72 29 -67 18 6 14 71 -6 75 -9 2 -19 -2 -23
-8z"/>
<path d="M14690 9781 c-21 -40 -5 -111 25 -111 20 0 35 32 35 72 0 54 -38 78
-60 39z"/>
<path d="M14884 9786 c-4 -9 -2 -27 4 -39 10 -22 10 -21 17 6 9 33 -10 62 -21
33z"/>
<path d="M14063 10295 c-28 -12 -33 -19 -33 -50 0 -30 3 -35 23 -35 12 0 37 9
55 20 25 15 32 27 32 50 0 25 -4 30 -22 30 -13 -1 -38 -7 -55 -15z"/>
<path d="M13903 10204 c-15 -24 -15 -28 -1 -52 25 -42 61 -59 92 -44 39 18 36
60 -5 69 -19 3 -35 15 -41 29 -14 31 -24 30 -45 -2z"/>
<path d="M13864 10015 c-9 -23 9 -37 42 -33 21 2 29 8 29 23 0 26 -62 35 -71
10z"/>
<path d="M11722 10218 c-27 -27 -3 -73 35 -66 27 5 25 72 -2 76 -11 1 -26 -3
-33 -10z"/>
<path d="M11881 10197 c-14 -14 -14 -54 -1 -62 16 -10 40 14 40 40 0 26 -22
39 -39 22z"/>
<path d="M11437 9842 c-21 -23 -22 -71 -1 -100 42 -60 114 15 84 88 -10 23
-19 30 -40 30 -15 0 -34 -8 -43 -18z"/>
<path d="M11632 9788 c-22 -22 -14 -66 14 -85 25 -16 27 -16 41 3 16 22 9 63
-14 82 -21 15 -26 15 -41 0z"/>
<path d="M11386 9504 c-9 -23 -8 -24 12 -24 19 0 42 18 42 32 0 15 -48 8 -54
-8z"/>
<path d="M11351 9401 c-22 -14 -3 -31 34 -31 44 0 91 20 73 32 -17 10 -89 10
-107 -1z"/>
<path d="M11593 9394 c-18 -9 -39 -27 -48 -40 -14 -22 -14 -25 0 -30 28 -11
83 6 115 36 17 16 29 34 25 40 -9 15 -55 12 -92 -6z"/>
<path d="M11338 9244 c-38 -20 -35 -34 6 -34 47 0 66 9 66 31 0 23 -33 25 -72
3z"/>
<path d="M12757 10083 c-13 -12 -7 -41 10 -47 21 -9 46 16 37 37 -6 17 -35 23
-47 10z"/>
<path d="M12957 10083 c-12 -12 -7 -41 8 -47 22 -8 49 23 34 40 -12 15 -31 18
-42 7z"/>
<path d="M12876 9988 c-9 -13 -12 -26 -7 -31 13 -13 53 12 49 30 -5 26 -25 26
-42 1z"/>
<path d="M12927 9642 c-44 -49 -12 -92 69 -92 66 0 85 40 39 85 -29 30 -84 34
-108 7z"/>
<path d="M12790 9605 c-39 -41 -122 -85 -159 -85 l-26 -1 24 -19 c35 -30 184
-23 196 8 11 30 18 132 8 132 -5 0 -24 -16 -43 -35z"/>
<path d="M13137 9612 c-22 -24 -21 -32 2 -32 22 0 45 25 36 40 -9 15 -20 12
-38 -8z"/>
<path d="M13452 9298 c-19 -19 -15 -75 8 -98 11 -11 31 -20 45 -20 25 0 65 31
65 50 0 18 -55 69 -80 75 -14 3 -30 1 -38 -7z"/>
<path d="M13233 9194 c-8 -21 23 -52 38 -37 8 8 8 17 0 32 -14 25 -29 27 -38
5z"/>
<path d="M13642 9198 c-17 -17 -15 -57 3 -64 24 -10 67 24 63 49 -3 25 -46 35
-66 15z"/>
<path d="M13470 9144 c0 -32 59 -74 105 -74 32 0 26 12 -27 51 -37 26 -78 39
-78 23z"/>
<path d="M13694 9026 c-9 -24 4 -48 23 -44 12 2 18 12 18 28 0 29 -32 41 -41
16z"/>
<path d="M10093 9303 c-7 -2 -13 -11 -13 -20 0 -21 44 -13 48 10 3 17 -10 21
-35 10z"/>
<path d="M10087 9033 c-10 -9 -9 -43 1 -43 18 0 45 28 38 38 -8 13 -29 16 -39
5z"/>
<path d="M10532 8934 c-46 -32 -5 -84 78 -98 48 -9 67 5 55 40 -20 54 -93 86
-133 58z"/>
<path d="M9997 8913 c-16 -15 -6 -53 18 -69 23 -15 25 -22 23 -78 -3 -60 -3
-61 25 -64 25 -3 27 -1 27 34 0 20 9 51 20 69 25 40 19 56 -31 89 -38 25 -69
33 -82 19z"/>
<path d="M10808 8841 c-14 -15 -31 -43 -38 -61 -12 -30 -12 -34 6 -47 27 -20
123 -14 137 9 19 29 -39 128 -74 128 -4 0 -18 -13 -31 -29z"/>
<path d="M10250 8822 c0 -86 82 -112 205 -67 71 26 96 45 58 45 -10 0 -63 12
-118 26 -159 42 -145 42 -145 -4z"/>
<path d="M10163 8794 c-3 -8 2 -23 11 -32 14 -15 18 -15 31 -1 9 9 13 23 9 32
-8 21 -43 22 -51 1z"/>
<path d="M10531 8725 c-17 -15 -31 -32 -31 -39 0 -23 36 -46 71 -46 53 0 71
18 67 65 -3 38 -5 40 -39 43 -27 2 -44 -3 -68 -23z"/>
<path d="M10740 8641 c-5 -11 -10 -45 -10 -76 0 -68 13 -95 44 -95 28 0 36 16
36 76 0 85 -43 144 -70 95z"/>
<path d="M10232 8618 c-16 -16 -15 -55 2 -61 20 -8 36 13 36 45 0 30 -17 37
-38 16z"/>
<path d="M10603 8584 c-8 -22 9 -48 36 -52 23 -4 28 16 11 49 -13 23 -38 25
-47 3z"/>
<path d="M14810 8767 c0 -16 42 -57 58 -57 17 0 15 21 -4 48 -17 24 -54 30
-54 9z"/>
<path d="M14525 8656 c-32 -14 -58 -40 -68 -68 -9 -26 6 -29 38 -8 28 18 29
18 65 0 45 -23 83 -10 88 32 6 49 -59 72 -123 44z"/>
<path d="M14725 8660 c-12 -19 -17 -107 -7 -114 12 -7 52 92 45 111 -6 15 -29
17 -38 3z"/>
<path d="M14856 8593 c-4 -9 -3 -20 2 -25 9 -9 52 18 52 33 0 16 -48 10 -54
-8z"/>
<path d="M14354 9036 c-23 -36 -15 -70 17 -74 46 -5 93 77 53 92 -31 12 -54 6
-70 -18z"/>
<path d="M14143 8943 c-12 -2 -27 -11 -34 -19 -24 -29 50 -158 81 -139 7 4 8
24 4 56 -6 43 -4 49 12 49 10 0 28 -12 40 -27 19 -23 26 -26 41 -17 21 13 29
69 12 90 -11 14 -101 18 -156 7z"/>
<path d="M15805 8014 c-21 -22 -15 -48 12 -52 17 -3 24 3 29 22 10 43 -11 59
-41 30z"/>
<path d="M15691 7864 c-12 -15 -26 -45 -33 -67 -11 -35 -10 -41 7 -53 22 -17
49 -18 76 -4 24 13 26 77 4 120 -19 37 -28 37 -54 4z"/>
<path d="M15800 7855 c-22 -26 3 -65 40 -65 25 0 30 4 30 24 0 14 -10 32 -22
40 -28 20 -32 20 -48 1z"/>
<path d="M15831 7688 c-17 -47 5 -84 62 -103 22 -7 34 -20 42 -45 16 -47 49
-49 53 -3 4 41 -27 101 -73 141 -42 37 -72 41 -84 10z"/>
<path d="M15753 7643 c-39 -14 21 -191 71 -214 65 -30 73 34 12 101 -19 21
-37 51 -41 68 -7 34 -24 52 -42 45z"/>
<path d="M15663 7583 c-18 -7 -16 -42 3 -50 8 -3 23 1 31 10 13 13 14 19 3 31
-13 17 -17 18 -37 9z"/>
<path d="M15914 7419 c-36 -53 -41 -132 -8 -137 25 -4 104 77 104 106 0 24
-37 72 -54 72 -7 0 -26 -18 -42 -41z"/>
<path d="M13747 7906 c-13 -35 18 -66 67 -66 13 0 38 -11 54 -25 40 -34 84
-33 112 2 47 60 4 89 -146 100 -69 5 -82 3 -87 -11z"/>
<path d="M13636 7789 c-29 -23 -35 -64 -12 -95 14 -19 15 -19 46 5 33 24 49
18 50 -17 0 -18 44 -32 101 -32 35 0 49 4 49 14 0 21 -77 86 -110 93 -23 4
-30 11 -30 29 0 21 -5 24 -34 24 -19 0 -45 -9 -60 -21z"/>
<path d="M13472 7748 c-18 -18 -14 -35 14 -57 34 -27 42 -26 56 4 9 21 8 28
-7 45 -20 23 -45 26 -63 8z"/>
<path d="M14094 7746 c-9 -24 4 -48 23 -44 12 2 18 12 18 28 0 29 -32 41 -41
16z"/>
<path d="M13945 7730 c-8 -26 12 -63 32 -56 8 3 17 6 19 6 12 0 2 39 -14 53
-24 22 -29 21 -37 -3z"/>
<path d="M12766 7579 c-97 -31 -128 -52 -124 -82 5 -36 31 -42 79 -19 24 11
63 26 86 33 53 15 85 44 81 72 -4 30 -20 29 -122 -4z"/>
<path d="M12785 7438 c-45 -16 -63 -36 -81 -90 -17 -52 -13 -98 10 -98 19 0
44 31 57 71 24 71 53 81 108 38 29 -23 57 -24 65 -4 7 19 -7 57 -26 73 -21 17
-98 23 -133 10z"/>
<path d="M12386 7403 c-12 -12 -6 -51 10 -63 23 -20 50 10 35 38 -11 21 -35
34 -45 25z"/>
<path d="M12810 7220 c0 -11 7 -23 15 -27 21 -8 28 1 20 26 -8 27 -35 27 -35
1z"/>
<path d="M13038 6972 c-6 -25 2 -53 13 -47 12 8 12 52 0 59 -5 3 -11 -2 -13
-12z"/>
<path d="M12615 6920 c-4 -6 8 -10 30 -10 22 0 34 4 30 10 -3 6 -17 10 -30 10
-13 0 -27 -4 -30 -10z"/>
<path d="M11112 8058 c-18 -18 -14 -38 7 -38 22 0 45 25 36 40 -8 13 -28 13
-43 -2z"/>
<path d="M11162 7894 c3 -40 16 -47 33 -20 11 18 -2 47 -24 54 -9 3 -11 -7 -9
-34z"/>
<path d="M11277 7924 c-4 -4 -7 -20 -7 -36 0 -21 5 -28 19 -28 27 0 35 30 13
52 -10 10 -21 15 -25 12z"/>
<path d="M11190 7770 c-11 -21 -5 -60 10 -60 17 0 41 33 38 54 -4 28 -34 32
-48 6z"/>
<path d="M11172 7204 c4 -33 32 -54 49 -37 18 18 -5 63 -31 63 -17 0 -21 -5
-18 -26z"/>
<path d="M12217 8063 c-13 -13 -7 -63 7 -63 19 0 46 38 39 56 -5 14 -35 19
-46 7z"/>
<path d="M12025 7976 c-22 -16 -14 -46 13 -46 25 0 46 25 38 45 -7 19 -26 19
-51 1z"/>
<path d="M12256 7934 c-23 -22 -17 -59 9 -59 15 0 21 8 23 29 5 38 -11 52 -32
30z"/>
<path d="M11817 7923 c-13 -12 -7 -41 10 -47 9 -4 23 0 31 8 13 12 13 18 2 30
-13 17 -32 21 -43 9z"/>
<path d="M12070 7856 c0 -19 8 -27 33 -35 36 -11 98 -2 104 16 6 18 -51 43
-97 43 -36 0 -40 -3 -40 -24z"/>
<path d="M15012 7738 c-14 -14 -16 -58 -4 -58 14 0 42 35 42 53 0 20 -21 22
-38 5z"/>
<path d="M15062 7619 c-76 -38 -121 -143 -76 -180 18 -15 22 -11 56 50 10 18
25 31 36 31 24 0 40 18 52 60 10 34 4 60 -14 60 -6 0 -30 -10 -54 -21z"/>
<path d="M15230 7601 c-13 -26 -13 -33 4 -56 12 -16 16 -17 30 -6 19 16 21 52
4 69 -17 17 -26 15 -38 -7z"/>
<path d="M15125 7445 c-27 -26 -32 -54 -13 -73 20 -20 37 -14 58 21 42 68 8
106 -45 52z"/>
<path d="M15010 7361 c-27 -52 5 -105 50 -81 21 11 21 18 -1 78 -10 27 -35 29
-49 3z"/>
<path d="M15214 7339 c-42 -12 -78 -52 -69 -78 10 -33 42 -25 92 22 60 57 52
78 -23 56z"/>
<path d="M15090 7205 c-16 -19 -6 -45 19 -45 23 0 35 28 20 46 -15 18 -24 18
-39 -1z"/>
<path d="M14220 7418 c-7 -40 -14 -76 -16 -79 -2 -3 3 -15 11 -25 15 -18 16
-18 35 5 24 28 26 86 6 136 -8 19 -17 35 -20 35 -2 0 -10 -33 -16 -72z"/>
<path d="M10485 7411 c-7 -13 54 -83 66 -75 15 9 10 51 -7 68 -17 18 -50 21
-59 7z"/>
<path d="M10428 7295 c-9 -19 -7 -29 6 -50 23 -35 60 -31 64 7 7 60 -47 94
-70 43z"/>
<path d="M10600 7275 c-17 -20 -8 -50 15 -50 15 0 21 8 23 33 4 35 -16 44 -38
17z"/>
<path d="M9310 6834 c0 -21 4 -33 10 -29 6 3 10 19 10 36 0 16 -4 29 -10 29
-5 0 -10 -16 -10 -36z"/>
<path d="M9884 6841 c-38 -18 -94 -66 -94 -82 0 -20 36 -27 74 -14 41 14 96
61 96 82 0 26 -34 32 -76 14z"/>
<path d="M10071 6816 c-14 -17 -18 -67 -7 -85 5 -7 25 -11 49 -9 41 3 42 2 67
-47 28 -55 50 -64 64 -24 27 78 -125 223 -173 165z"/>
<path d="M9369 6764 c-12 -34 -4 -74 16 -74 35 0 47 92 13 98 -12 2 -22 -6
-29 -24z"/>
<path d="M9657 6783 c-13 -12 -7 -41 10 -47 23 -9 47 22 32 41 -12 14 -32 17
-42 6z"/>
<path d="M9929 6709 c-11 -11 -19 -28 -17 -37 4 -21 44 -28 64 -12 19 16 18
56 -2 64 -22 8 -22 8 -45 -15z"/>
<path d="M9525 6696 c-27 -19 -13 -46 25 -46 38 0 52 27 25 46 -10 8 -22 14
-25 14 -3 0 -15 -6 -25 -14z"/>
<path d="M9630 6665 c-14 -17 2 -50 31 -66 17 -9 25 -8 37 4 14 14 13 18 -1
40 -19 29 -52 40 -67 22z"/>
<path d="M10027 6613 c-12 -11 -8 -60 6 -71 26 -22 55 25 37 59 -11 19 -31 25
-43 12z"/>
<path d="M10110 6576 c-7 -10 -10 -26 -6 -42 5 -19 12 -25 29 -22 18 2 22 9
22 38 0 39 -23 52 -45 26z"/>
<path d="M9972 6438 c-17 -17 -15 -42 6 -61 24 -22 35 -21 55 1 21 23 21 36 1
56 -18 19 -45 21 -62 4z"/>
<path d="M10152 6418 c-29 -29 1 -68 42 -52 28 11 13 64 -19 64 -6 0 -16 -5
-23 -12z"/>
<path d="M9216 6225 c-35 -35 -2 -89 50 -83 39 4 53 31 34 66 -18 32 -60 41
-84 17z"/>
<path d="M14696 6894 c-21 -20 -17 -53 7 -68 14 -8 20 -8 27 4 26 41 -3 95
-34 64z"/>
<path d="M14929 6652 c-15 -13 -20 -25 -16 -37 6 -14 15 -16 51 -11 39 6 47 4
70 -19 28 -28 63 -32 92 -10 18 14 18 16 -13 44 -54 50 -143 65 -184 33z"/>
<path d="M14982 6408 c-17 -17 -15 -58 4 -65 22 -8 67 38 58 60 -7 20 -44 23
-62 5z"/>
<path d="M14821 6341 c-6 -11 -11 -61 -11 -111 0 -75 3 -92 17 -97 42 -16 92
100 58 137 -10 11 -15 30 -13 52 2 28 -1 34 -19 36 -14 2 -26 -4 -32 -17z"/>
<path d="M15100 6330 c-33 -33 -20 -80 22 -80 25 0 52 44 44 75 -8 31 -38 33
-66 5z"/>
<path d="M14624 6195 c-45 -45 -16 -140 34 -109 26 16 55 81 48 109 -9 33 -49
33 -82 0z"/>
<path d="M15026 6175 c-3 -9 1 -18 9 -21 16 -6 45 12 45 27 0 16 -48 10 -54
-6z"/>
<path d="M15397 6177 c-8 -21 8 -39 29 -35 27 5 25 42 -2 46 -12 2 -24 -3 -27
-11z"/>
<path d="M15538 6069 c-20 -11 -24 -49 -5 -49 20 1 47 26 47 44 0 18 -17 20
-42 5z"/>
<path d="M14740 6040 c0 -16 4 -30 9 -30 12 0 24 37 16 50 -12 20 -25 10 -25
-20z"/>
<path d="M14434 6035 c-3 -8 -3 -19 1 -25 9 -14 45 6 45 25 0 19 -39 19 -46 0z"/>
<path d="M15368 5963 c-37 -9 -35 -99 3 -147 25 -31 33 -32 59 -6 30 30 29
123 -2 144 -23 16 -29 17 -60 9z"/>
<path d="M14147 5863 c-24 -23 14 -83 39 -62 18 15 18 34 -2 53 -17 17 -27 20
-37 9z"/>
<path d="M13774 5590 c-12 -4 -24 -16 -28 -25 -7 -18 9 -55 24 -55 19 0 83 67
76 78 -8 14 -41 15 -72 2z"/>
<path d="M13922 5554 c-27 -19 -29 -50 -3 -64 26 -13 46 -5 60 27 9 19 9 29 0
39 -15 18 -29 18 -57 -2z"/>
<path d="M14057 5514 c-32 -32 -35 -54 -7 -54 25 0 62 36 58 57 -5 26 -23 25
-51 -3z"/>
<path d="M13593 5463 c-7 -2 -13 -11 -13 -20 0 -21 44 -13 48 10 3 17 -10 21
-35 10z"/>
<path d="M13796 5397 c-28 -21 -16 -52 19 -50 40 3 63 27 45 47 -15 19 -40 20
-64 3z"/>
<path d="M13376 5387 c-37 -27 4 -63 42 -38 18 11 12 45 -8 49 -9 1 -24 -4
-34 -11z"/>
<path d="M13154 5326 c-9 -24 4 -48 23 -44 12 2 18 12 18 28 0 29 -32 41 -41
16z"/>
<path d="M13499 5247 c-52 -28 -65 -63 -26 -72 44 -11 96 28 97 73 0 28 -16
28 -71 -1z"/>
<path d="M13312 5249 c-27 -10 -26 -42 1 -47 34 -7 65 39 35 51 -7 2 -23 0
-36 -4z"/>
<path d="M13720 5184 c0 -21 4 -33 10 -29 6 3 10 19 10 36 0 16 -4 29 -10 29
-5 0 -10 -16 -10 -36z"/>
<path d="M13834 5158 c-8 -28 18 -48 63 -48 39 0 44 19 13 50 -27 27 -67 26
-76 -2z"/>
<path d="M13974 4916 c-4 -16 -2 -32 4 -38 8 -8 13 -3 18 16 4 16 2 32 -4 38
-8 8 -13 3 -18 -16z"/>
<path d="M14112 4838 c-17 -17 -15 -48 4 -55 21 -8 59 30 51 51 -7 19 -38 21
-55 4z"/>
<path d="M13875 4790 c-15 -16 -15 -22 -5 -35 15 -18 42 -19 58 -3 16 16 15
23 -4 42 -20 21 -27 20 -49 -4z"/>
<path d="M13634 4695 c-4 -9 -2 -21 4 -27 16 -16 47 -5 47 17 0 26 -42 34 -51
10z"/>
<path d="M13833 4695 c-27 -19 -36 -54 -17 -62 19 -7 64 34 64 59 0 22 -18 23
-47 3z"/>
<path d="M10364 5836 c-11 -28 0 -61 20 -61 27 0 44 30 30 53 -15 22 -43 27
-50 8z"/>
<path d="M10337 5703 c-13 -13 -7 -34 18 -59 28 -28 45 -24 45 10 0 35 -44 69
-63 49z"/>
<path d="M10707 5693 c-14 -14 -6 -43 17 -58 44 -29 77 12 40 49 -16 16 -46
21 -57 9z"/>
<path d="M10962 5598 c2 -18 11 -24 36 -26 22 -2 32 1 32 10 0 21 -21 38 -48
38 -19 0 -23 -5 -20 -22z"/>
<path d="M10464 5585 c-13 -33 18 -45 52 -20 16 13 17 16 4 25 -22 14 -50 12
-56 -5z"/>
<path d="M10710 5555 c-10 -12 -10 -18 0 -30 16 -20 54 -19 71 1 11 14 10 18
-6 30 -25 18 -49 18 -65 -1z"/>
<path d="M15897 5818 c-32 -18 -18 -49 56 -123 80 -79 150 -130 166 -120 17
10 13 82 -5 99 -8 9 -31 16 -50 16 -29 0 -38 6 -52 31 -50 91 -80 117 -115 97z"/>
<path d="M16054 5809 c-9 -15 47 -90 85 -113 31 -18 33 -18 51 -1 51 46 -8
125 -94 125 -19 0 -38 -5 -42 -11z"/>
<path d="M16300 5800 c-25 -25 -22 -44 9 -48 29 -5 53 16 49 42 -4 29 -32 32
-58 6z"/>
<path d="M16452 5777 c-28 -29 -74 -132 -70 -155 4 -21 44 -28 65 -10 26 21
53 89 53 134 0 50 -19 62 -48 31z"/>
<path d="M16213 5619 c-13 -4 -23 -14 -23 -21 0 -41 142 -198 179 -198 11 0
25 9 31 20 10 18 5 27 -37 68 -26 26 -57 63 -68 81 -26 45 -54 62 -82 50z"/>
<path d="M16437 5543 c-33 -32 56 -147 109 -141 61 7 57 71 -8 118 -38 28 -86
39 -101 23z"/>
<path d="M17230 5218 c-33 -12 -100 -78 -100 -98 0 -9 -6 -24 -13 -35 -20 -26
-53 -14 -121 45 -31 27 -68 53 -80 56 -36 9 -68 1 -80 -18 -15 -25 0 -46 61
-80 92 -52 284 -56 391 -7 43 19 45 22 28 32 -43 27 -57 48 -51 77 7 34 -1 41
-35 28z"/>
<path d="M12653 5363 c-7 -2 -13 -13 -13 -24 0 -26 46 -37 67 -16 28 28 -12
58 -54 40z"/>
<path d="M11748 5333 c-41 -17 -51 -46 -20 -61 28 -15 92 -24 123 -17 35 8 38
31 8 69 -24 30 -55 33 -111 9z"/>
<path d="M12002 5278 c-7 -7 -12 -20 -12 -30 0 -13 8 -18 30 -18 34 0 49 22
30 45 -15 18 -32 19 -48 3z"/>
<path d="M12285 5237 c-24 -18 -11 -37 25 -37 35 0 68 28 48 41 -20 13 -52 11
-73 -4z"/>
<path d="M11726 5214 c-7 -19 10 -44 30 -44 19 0 18 25 -2 44 -19 20 -20 20
-28 0z"/>
<path d="M11844 5185 c-8 -21 2 -45 19 -45 8 0 20 7 27 15 10 12 10 18 0 30
-7 8 -19 15 -27 15 -7 0 -16 -7 -19 -15z"/>
<path d="M12134 5165 c-16 -24 -16 -28 -1 -42 13 -14 19 -14 32 -3 18 15 17
61 -2 67 -6 2 -19 -8 -29 -22z"/>
<path d="M11946 5061 c-15 -17 -16 -23 -6 -36 16 -19 60 -19 86 -1 15 12 17
18 8 33 -16 26 -66 28 -88 4z"/>
<path d="M12187 4994 c-13 -13 -7 -42 10 -48 28 -11 40 12 17 34 -11 11 -23
17 -27 14z"/>
<path d="M11966 4815 c-9 -9 -16 -25 -16 -36 0 -27 45 -70 65 -63 23 9 30 53
14 83 -18 32 -41 37 -63 16z"/>
<path d="M12175 4706 c-15 -11 -15 -13 -1 -25 18 -15 56 -6 56 14 0 18 -36 25
-55 11z"/>
<path d="M12296 4625 c-24 -49 -18 -99 11 -103 27 -4 36 23 31 88 -4 55 -21
61 -42 15z"/>
<path d="M12005 4610 c-9 -10 -15 -26 -11 -35 14 -37 99 -44 113 -9 7 20 -35
64 -62 64 -12 0 -30 -9 -40 -20z"/>
<path d="M10165 5210 c-14 -22 82 -124 112 -118 13 2 19 14 21 40 4 52 -31 88
-87 88 -22 0 -43 -5 -46 -10z"/>
<path d="M10394 5095 c-8 -19 3 -35 26 -35 19 0 30 17 23 38 -6 17 -42 15 -49
-3z"/>
<path d="M13812 3299 c-49 -29 -52 -33 -47 -62 5 -26 -31 -120 -190 -497 -219
-522 -224 -530 -310 -530 -41 0 -45 -2 -45 -25 l0 -25 200 0 200 0 0 25 c0 23
-4 25 -41 25 -22 0 -49 5 -60 10 -22 12 -49 60 -49 87 0 14 89 244 147 381 4
9 44 12 171 10 l165 -3 74 -210 c42 -122 72 -223 71 -240 -3 -28 -6 -30 -50
-33 -44 -3 -48 -5 -48 -28 l0 -25 493 3 c468 3 495 5 554 25 162 54 309 178
375 314 46 96 59 152 59 260 0 256 -132 464 -326 514 -48 12 -127 15 -417 15
l-358 0 0 -25 c0 -24 3 -25 58 -25 98 0 92 36 92 -511 0 -413 -2 -477 -16
-497 -13 -20 -24 -22 -96 -22 -95 0 -140 18 -161 63 -8 18 -97 263 -198 545
-100 281 -185 512 -188 512 -3 0 -30 -14 -59 -31z m1296 -100 c141 -70 224
-241 225 -459 0 -152 -47 -278 -144 -384 -96 -105 -177 -136 -361 -136 -124 0
-142 6 -153 53 -3 12 -4 225 -3 473 2 364 6 454 17 467 12 15 38 17 186 17
172 0 172 0 233 -31z m-1239 -253 c34 -98 61 -182 61 -187 0 -5 -65 -9 -144
-9 l-145 0 63 153 c93 223 96 230 100 226 2 -2 31 -84 65 -183z"/>
<path d="M6042 3295 c-143 -31 -254 -105 -331 -220 -232 -347 -73 -831 305
-930 76 -20 243 -19 319 0 195 51 344 212 391 421 24 109 16 274 -19 366 -72
198 -211 322 -403 363 -85 18 -179 18 -262 0z m281 -58 c107 -49 192 -163 233
-313 24 -91 30 -273 10 -369 -24 -118 -82 -230 -155 -298 -75 -69 -135 -91
-244 -90 -66 0 -87 5 -142 32 -109 54 -190 166 -232 322 -24 89 -24 309 1 398
20 74 60 157 105 218 89 123 278 167 424 100z"/>
<path d="M16465 3304 c-184 -29 -330 -135 -409 -296 -55 -113 -69 -183 -63
-318 6 -144 29 -222 98 -325 76 -113 179 -187 306 -220 74 -19 242 -19 317 0
274 72 444 343 406 647 -30 243 -163 418 -370 488 -62 21 -219 34 -285 24z
m248 -72 c159 -79 248 -264 248 -517 0 -360 -198 -593 -463 -545 -81 15 -131
41 -187 99 -102 105 -153 253 -154 446 0 189 44 328 138 433 83 92 157 124
277 119 62 -3 89 -10 141 -35z"/>
<path d="M4400 3265 c0 -24 3 -25 58 -25 98 0 92 36 92 -511 0 -551 6 -519
-91 -519 -57 0 -59 -1 -59 -26 l0 -26 303 4 c271 4 308 6 364 25 161 54 309
177 375 314 46 96 59 152 59 260 0 256 -132 464 -326 514 -48 12 -127 15 -417
15 l-358 0 0 -25z m728 -66 c141 -70 224 -241 225 -459 0 -152 -47 -278 -144
-384 -96 -105 -177 -136 -361 -136 -124 0 -142 6 -153 53 -3 12 -4 225 -3 473
2 364 6 454 17 467 12 15 38 17 186 17 172 0 172 0 233 -31z"/>
<path d="M6930 3265 c0 -24 3 -25 55 -25 42 0 60 -5 75 -20 20 -20 21 -29 18
-463 -3 -410 -4 -445 -22 -480 -23 -47 -60 -67 -126 -67 -47 0 -50 -2 -50 -25
l0 -25 205 0 205 0 0 25 c0 23 -4 25 -46 25 -40 0 -51 5 -80 35 -18 20 -36 50
-39 68 -3 18 -4 217 -3 443 l3 412 325 -502 325 -501 58 -3 57 -3 0 478 c0
290 4 492 10 514 6 20 22 48 36 63 23 22 35 26 85 26 56 0 59 1 59 25 l0 25
-205 0 -205 0 0 -25 c0 -23 3 -25 49 -25 68 0 106 -32 121 -103 7 -35 10 -180
8 -442 l-3 -390 -324 493 -325 492 -133 0 -133 0 0 -25z"/>
<path d="M8165 3278 c-10 -28 -95 -282 -95 -286 0 -2 10 -2 22 0 15 2 25 15
35 45 20 60 92 136 155 164 41 17 77 24 154 27 97 4 102 3 118 -19 14 -21 16
-75 16 -495 0 -542 7 -504 -93 -504 -54 0 -57 -1 -57 -25 l0 -25 220 0 220 0
0 25 c0 24 -3 25 -55 25 -42 0 -60 5 -75 20 -20 20 -21 30 -18 489 3 452 4
470 23 491 19 21 26 22 140 18 106 -3 126 -7 171 -30 63 -33 140 -116 155
-169 9 -27 18 -39 31 -39 10 0 18 6 18 12 0 7 -21 75 -46 150 l-46 138 -494 0
c-387 0 -496 -3 -499 -12z"/>
<path d="M9885 3278 c-10 -28 -95 -282 -95 -286 0 -2 10 -2 22 0 15 2 25 15
35 45 20 60 92 136 155 164 41 17 77 24 154 27 97 4 102 3 118 -19 14 -21 16
-75 16 -495 0 -542 7 -504 -93 -504 -54 0 -57 -1 -57 -25 l0 -25 220 0 220 0
0 25 c0 24 -3 25 -55 25 -42 0 -60 5 -75 20 -20 20 -21 30 -18 489 3 452 4
470 23 491 19 21 26 22 140 18 106 -3 126 -7 171 -30 63 -33 140 -116 155
-169 9 -27 18 -39 31 -39 10 0 18 6 18 12 0 7 -21 75 -46 150 l-46 138 -494 0
c-387 0 -496 -3 -499 -12z"/>
<path d="M11080 3266 c0 -25 3 -26 53 -26 99 0 92 39 95 -502 3 -469 2 -475
-18 -501 -19 -23 -29 -27 -76 -27 -51 0 -54 -1 -54 -25 l0 -25 215 0 215 0 0
25 c0 23 -3 25 -52 25 -29 0 -58 4 -65 8 -27 17 -33 70 -33 313 l0 249 94 0
95 0 152 -267 c83 -148 166 -283 183 -301 17 -18 46 -37 66 -43 22 -6 215 -9
530 -7 l495 3 37 140 c54 204 53 195 31 195 -14 0 -28 -20 -52 -72 -38 -81
-97 -150 -156 -181 -35 -19 -59 -22 -200 -25 -217 -5 -199 -31 -203 289 l-4
249 97 0 c64 0 108 -5 133 -15 69 -30 112 -86 112 -150 0 -28 4 -35 20 -35 19
0 20 7 20 221 0 205 -1 220 -17 217 -12 -2 -20 -16 -24 -43 -7 -53 -22 -79
-66 -112 -34 -26 -43 -28 -155 -31 l-120 -4 4 190 c4 249 -10 232 196 232 137
0 161 -3 198 -20 59 -29 119 -98 161 -186 25 -53 40 -74 54 -74 10 0 19 2 19
4 0 3 -16 77 -35 166 -19 89 -35 163 -35 166 0 2 -189 4 -420 4 l-420 0 0 -25
c0 -24 3 -25 53 -25 99 0 92 39 95 -502 3 -566 13 -521 -123 -532 -94 -7 -120
1 -164 48 -13 14 -90 139 -172 278 l-148 253 37 11 c58 17 97 40 130 78 42 48
55 98 51 193 -5 104 -32 148 -116 190 l-58 28 -327 3 -328 3 0 -25z m598 -62
c64 -32 84 -66 83 -142 -1 -113 -28 -169 -95 -201 -36 -18 -61 -21 -174 -21
l-132 0 0 195 0 195 133 0 c123 0 137 -2 185 -26z"/>
<path d="M17310 3265 c0 -24 3 -25 58 -25 98 0 92 31 92 -476 0 -407 -2 -442
-19 -480 -26 -56 -54 -74 -118 -74 -50 0 -53 -1 -53 -25 l0 -25 205 0 205 0 0
25 c0 23 -4 25 -40 25 -58 0 -95 23 -119 73 -21 43 -21 54 -19 467 l3 423 329
-506 328 -507 54 0 54 0 0 473 c0 309 4 486 11 511 6 22 24 52 39 68 24 24 36
28 84 28 53 0 56 1 56 25 l0 25 -200 0 -200 0 0 -25 c0 -23 4 -25 45 -25 58 0
90 -21 110 -73 13 -36 15 -98 13 -449 l-3 -407 -321 487 -321 487 -137 3 -136
3 0 -26z"/>
<path d="M18900 3265 c0 -24 3 -25 58 -25 98 0 92 31 92 -476 0 -407 -2 -442
-19 -480 -26 -56 -54 -74 -118 -74 -50 0 -53 -1 -53 -25 l0 -25 205 0 205 0 0
25 c0 22 -4 25 -40 25 -54 0 -87 17 -113 59 -22 36 -22 41 -25 466 -2 236 -1
427 2 424 3 -2 93 -227 200 -499 l195 -495 49 -3 50 -3 26 68 c14 37 102 268
195 513 l170 445 1 -467 c0 -455 -1 -469 -20 -488 -15 -15 -33 -20 -75 -20
-52 0 -55 -1 -55 -25 l0 -25 220 0 220 0 0 25 c0 24 -3 25 -59 25 -97 0 -91
-32 -91 515 0 543 -5 512 88 517 51 3 57 6 60 26 l3 23 -141 -3 -142 -3 -192
-502 c-105 -277 -193 -503 -196 -503 -3 0 -41 91 -84 203 -43 111 -133 338
-198 505 l-120 302 -149 0 -149 0 0 -25z"/>
<path d="M20282 3268 c3 -20 10 -23 58 -26 97 -6 90 33 90 -517 0 -554 7 -515
-93 -515 -54 0 -57 -1 -57 -25 l0 -25 414 0 c386 0 415 1 420 18 3 9 21 78 41
152 20 74 38 143 41 153 4 12 0 17 -15 17 -16 0 -28 -17 -54 -73 -40 -86 -83
-138 -146 -175 -44 -26 -53 -27 -207 -30 l-161 -4 -22 28 c-20 26 -21 37 -21
271 l0 245 108 -4 c99 -3 112 -5 151 -31 45 -30 80 -91 81 -139 0 -21 5 -28
20 -28 20 0 20 5 18 217 -3 198 -5 218 -20 221 -14 3 -18 -3 -18 -28 0 -50
-35 -106 -83 -135 -40 -23 -54 -25 -150 -25 l-107 0 0 180 c0 143 3 187 15
210 l16 30 157 0 c144 0 161 -2 208 -24 60 -28 108 -83 158 -183 28 -56 41
-73 57 -73 13 0 19 5 16 13 -3 7 -20 84 -38 170 l-34 157 -423 0 -423 0 3 -22z"/>
</g>
</svg>
